<svg width="246" height="104" viewBox="0 0 246 104" fill="none" xmlns="http://www.w3.org/2000/svg">
<path d="M122.546 104C90.4329 104 60.2339 99.8691 37.5088 92.3835C14.5663 84.8218 1.92863 74.6793 1.92863 63.826C1.92863 52.9726 14.5663 42.8301 37.5088 35.2662C60.2339 27.7763 90.4329 23.6519 122.546 23.6519C154.658 23.6519 184.857 27.7828 207.58 35.2662C230.525 42.8301 243.16 52.9726 243.16 63.826C243.16 74.6793 230.525 84.8218 207.58 92.3835C184.857 99.8756 154.656 104 122.546 104ZM122.546 24.9194C90.5756 24.9194 60.5283 29.0199 37.9391 36.4664C15.5696 43.8389 3.24902 53.5552 3.24902 63.826C3.24902 74.0967 15.5696 83.813 37.9391 91.1855C60.5283 98.632 90.5756 102.732 122.546 102.732C154.516 102.732 184.563 98.632 207.152 91.1855C229.519 83.813 241.84 74.0945 241.84 63.826C241.84 53.5574 229.519 43.8389 207.152 36.4664C184.563 29.0199 154.516 24.9194 122.546 24.9194Z" fill="#C3937C"/>
<path d="M27.5731 37.9774C20.4004 39.5885 14.8426 44.2586 10.4488 49.7548C7.93717 52.8987 5.7788 56.2925 3.75633 59.7429C1.80406 63.0737 -0.483396 66.8872 0.0896007 70.8659C1.24012 78.8385 11.0988 80.3213 17.7551 81.1953C23.0095 81.8845 27.6229 83.3477 32.1933 85.9654C36.1861 88.2548 39.9253 90.9246 43.9386 93.1836C51.8971 97.6623 60.6325 101.011 69.7393 102.546C78.8846 104.087 87.6472 103.285 96.6566 101.415C101.963 100.313 107.231 99.3756 112.671 99.169C117.971 98.9668 123.277 99.2451 128.57 99.5169C139.201 100.062 149.831 100.611 160.461 101.163C176.333 101.98 194.752 103.9 208.771 95.0751C215.856 90.6116 219.763 83.0781 226.537 78.3341C231.879 74.5924 240.309 73.9097 243.874 68.0656C247.833 61.567 242.533 54.4184 236.853 50.9419C232.794 48.459 228.201 46.7719 223.823 44.8934L209.215 38.621C204.437 36.5686 199.671 34.4901 194.872 32.4725C190.49 30.6353 186.017 29.009 181.254 28.3937C171.289 27.1045 161.136 29.046 151.116 28.5351C140.671 28.0089 130.359 26.2239 120.02 24.7999C115.237 24.1476 110.438 23.5541 105.616 23.2019C100.67 22.841 95.4675 22.4822 90.5348 23.1475C86.1864 23.7345 83.3055 26.0891 79.8743 28.4764C75.4761 31.5376 70.6747 31.8833 65.4226 31.331C60.7163 30.8375 56.1233 30.1744 51.3807 30.4331C42.5579 30.9059 34.0121 33.5594 26.572 38.1361C26.2685 38.3209 26.5494 38.7884 26.8551 38.6014C34.6602 33.8242 43.668 31.1666 52.9208 30.9114C60.8477 30.7136 69.9363 34.1857 77.4079 30.6027C81.2581 28.759 84.0212 25.3564 88.2337 24.1563C92.8675 22.8344 98.3257 23.3171 103.093 23.578C112.97 24.1215 122.729 25.7521 132.506 27.1262C141.615 28.4024 150.801 29.4547 160.026 29.1786C169.885 28.8808 179.533 27.5697 189.068 30.8027C198.482 33.9965 207.542 38.484 216.653 42.3953C221.056 44.2868 225.465 46.1609 229.861 48.0677C233.909 49.8244 238.108 51.7637 241.106 55.0032C244.177 58.3275 245.898 63.4216 243.548 67.5568C241.788 70.6506 238.316 72.266 235.091 73.6096C231.866 74.9533 228.548 76.1708 225.717 78.2667C222.745 80.4648 220.347 83.2673 217.937 85.9937C212.567 92.0813 206.674 96.6274 198.6 98.9429C190.981 101.128 182.912 101.437 175.012 101.276C155.843 100.88 136.712 98.7386 117.538 98.5777C112.981 98.5385 108.425 98.7581 103.924 99.4756C99.2317 100.224 94.6386 101.415 89.9414 102.167C80.71 103.643 71.3133 102.854 62.3538 100.332C53.718 97.9015 45.8025 93.9119 38.3468 89.1375C34.825 86.885 31.3009 84.5718 27.3941 82.9651C23.2518 81.2627 18.9192 80.8866 14.5164 80.2387C10.2133 79.6038 5.68368 78.4428 2.72584 75.1294C-1.2104 70.7072 1.2288 65.2696 3.77218 60.8495C7.4072 54.5314 11.536 48.1112 17.4131 43.4802C20.4073 41.0796 23.9398 39.377 27.7339 38.5057C28.0849 38.4275 27.9354 37.9078 27.5844 37.9861L27.5731 37.9774Z" fill="#C3937C"/>
<path d="M89.4273 24.1933C113.022 15.3227 138.634 12.5708 163.688 16.2142C164.182 16.2859 164.395 15.5619 163.897 15.4858C138.709 11.8081 112.958 14.5608 89.2303 23.4671C88.7637 23.6433 88.9675 24.3716 89.4386 24.1933H89.4273Z" fill="#C3937C"/>
<path d="M108.622 18.447C118.134 11.5636 130.004 9.36774 141.461 7.35882C141.96 7.27186 141.749 6.54569 141.253 6.63266C129.723 8.65027 117.787 10.8744 108.216 17.7969C107.818 18.0861 108.216 18.7405 108.613 18.4492L108.622 18.447Z" fill="#C3937C"/>
<path d="M115.608 14.4009C125.347 5.89558 139.282 2.67566 151.997 5.96951C152.097 5.99603 152.205 5.98321 152.295 5.93388C152.386 5.88454 152.452 5.80273 152.48 5.70643C152.507 5.61014 152.494 5.50725 152.442 5.4204C152.391 5.33355 152.306 5.26986 152.205 5.24334C139.215 1.87557 125.007 5.18028 115.063 13.8682C114.689 14.1943 115.244 14.7379 115.617 14.4009H115.608Z" fill="#C3937C"/>
<path d="M117.296 13.8117C129.465 13.5486 141.982 12.9986 152.36 6.15215C152.772 5.87821 152.38 5.22379 151.963 5.49991C141.699 12.2789 129.338 12.7964 117.296 13.0573C116.791 13.0573 116.791 13.8226 117.296 13.8117Z" fill="#C3937C"/>
<path d="M122.645 11.3571C124.98 9.54858 127.442 7.89804 130.015 6.4174C130.45 6.16955 130.053 5.5173 129.619 5.76515C126.99 7.28053 124.474 8.97034 122.09 10.8222C121.696 11.1266 122.256 11.6571 122.645 11.3549V11.3571Z" fill="#C3937C"/>
<path d="M128.214 10.0047C131.469 7.74143 135.179 6.25866 138.956 5.00417C139.432 4.84763 139.226 4.11929 138.748 4.27801C134.898 5.55641 131.125 7.05875 127.818 9.35683C127.413 9.63947 127.802 10.2939 128.214 10.0091V10.0047Z" fill="#C3937C"/>
<path d="M135.249 8.53066C139.075 6.87508 143.157 5.83077 147.334 5.43901C147.832 5.39118 147.837 4.63675 147.334 4.68458C143.02 5.09067 138.804 6.16945 134.853 7.87841C134.4 8.07626 134.789 8.72633 135.249 8.53066Z" fill="#C3937C"/>
<path d="M126.464 11.0571C129.378 12.1428 132.512 12.5785 135.627 12.3311C136.128 12.292 136.132 11.5376 135.627 11.5789C132.583 11.8239 129.52 11.397 126.674 10.3309C126.206 10.1504 125.995 10.8788 126.464 11.0571Z" fill="#C3937C"/>
<path d="M132.764 9.50906C136.68 10.3787 140.866 10.7418 144.818 9.88301C145.309 9.77648 145.101 9.04814 144.607 9.15467C140.802 9.98302 136.741 9.62864 132.975 8.78289C132.484 8.67201 132.273 9.39818 132.764 9.50906Z" fill="#C3937C"/>
<path d="M138.492 7.85237C142.301 7.94151 146.163 7.98064 149.95 7.53929C150.446 7.48059 150.453 6.72615 149.95 6.78486C146.163 7.21969 142.301 7.18925 138.492 7.10011C137.987 7.08707 137.987 7.8415 138.492 7.85237Z" fill="#C3937C"/>
<path d="M149.397 14.5401C159.463 10.7963 170.172 8.90232 180.966 8.95683C181.065 8.9496 181.158 8.90672 181.225 8.83678C181.293 8.76683 181.331 8.67498 181.331 8.57961C181.331 8.48424 181.293 8.39239 181.225 8.32244C181.158 8.2525 181.065 8.20962 180.966 8.20239C170.103 8.14591 159.325 10.0494 149.193 13.8139C148.727 13.9878 148.931 14.7162 149.402 14.5401H149.397Z" fill="#C3937C"/>
<path d="M154.584 12.5703C164.322 4.75635 178.536 3.69102 189.747 9.40687C190.2 9.62429 189.973 8.71114 189.521 8.48285C183.911 5.60405 177.533 4.4039 171.206 5.03708C164.88 5.67027 158.896 8.10777 154.026 12.0354C153.637 12.3485 154.196 12.879 154.581 12.5703H154.584Z" fill="#C3937C"/>
<path d="M154.987 12.5029C161.305 13.2461 167.683 13.4077 174.034 12.9855C179.17 12.6355 185.668 12.5268 190.078 9.6982C190.497 9.43077 190.105 8.77853 189.681 9.04595C187.287 10.5809 184.472 11.0027 181.689 11.4114C178.577 11.8651 175.449 12.1724 172.303 12.3333C166.524 12.6195 160.73 12.4231 154.987 11.7463C154.486 11.6876 154.488 12.442 154.987 12.5007V12.5029Z" fill="#C3937C"/>
<path d="M160.415 10.9527C163.781 8.43501 167.681 6.76744 171.805 5.76515C172.294 5.64557 172.086 4.91723 171.597 5.03681C167.334 6.07605 163.335 7.81973 159.861 10.42C159.462 10.7179 160.021 11.2484 160.415 10.9527Z" fill="#C3937C"/>
<path d="M171.003 9.4699C174.361 7.4875 178.267 6.53139 182.203 6.72828C182.708 6.7522 182.706 5.99777 182.203 5.97603C178.127 5.78032 174.085 6.77158 170.607 8.81982C170.174 9.07202 170.569 9.72427 171.003 9.47206V9.4699Z" fill="#C3937C"/>
<path d="M164.938 10.2526C167.357 10.9049 169.66 11.8028 172.156 12.1985C174.59 12.5689 177.064 12.6325 179.515 12.3876C180.013 12.342 180.017 11.5876 179.515 11.6332C176.865 11.9008 174.189 11.8005 171.57 11.3354C169.361 10.9266 167.3 10.1091 165.147 9.52429C165.048 9.50422 164.946 9.52099 164.86 9.57115C164.774 9.62131 164.711 9.70109 164.685 9.79414C164.658 9.88719 164.669 9.98649 164.717 10.0717C164.764 10.157 164.843 10.2217 164.938 10.2526Z" fill="#C3937C"/>
<path d="M172.765 9.20034C177.347 10.6679 182.253 11.5223 187.09 11.1375C187.591 11.0962 187.595 10.3418 187.09 10.3831C182.314 10.7636 177.499 9.92216 172.974 8.47417C172.494 8.31981 172.294 9.04815 172.765 9.20034Z" fill="#C3937C"/>
<path d="M102.978 5.47598C105.347 8.56763 105.77 12.605 103.609 15.9293C101.571 19.0536 97.6146 20.4755 94.2332 21.8452C93.7802 22.03 93.975 22.7605 94.4416 22.5714C98.2578 21.0277 102.595 19.4493 104.633 15.738C106.545 12.2702 106.049 8.21542 103.657 5.0955C103.36 4.71068 102.679 5.08463 102.978 5.47598Z" fill="#C3937C"/>
<path d="M103.444 5.74125C102.747 5.7282 102.045 5.72385 101.347 5.69776C100.969 5.7004 100.59 5.68007 100.215 5.63689C100.053 5.04262 100.204 4.79911 100.668 4.90637C100.728 4.90559 100.787 4.8917 100.84 4.86576C100.894 4.83982 100.941 4.8025 100.977 4.75664C101.014 4.71077 101.039 4.65755 101.051 4.60101C101.063 4.54446 101.061 4.48605 101.046 4.43023C100.973 4.13454 100.516 2.96703 100.683 2.75831C101.166 2.16042 101.669 2.99311 101.841 3.33663C102.013 3.68014 102.445 3.51709 102.559 3.24749C102.785 2.69961 103.716 1.90821 103.995 2.73004C103.961 2.63438 103.963 3.59971 103.947 3.3562C103.949 3.4558 103.991 3.55082 104.064 3.62106C104.138 3.69129 104.237 3.73121 104.341 3.73233C104.472 3.73233 105.593 3.57361 105.646 3.66493C106.046 4.38675 103.961 5.00421 103.594 5.01943C103.091 5.04117 103.086 5.7956 103.594 5.77386C104.726 5.72603 106.16 5.06074 106.402 3.86495C106.653 2.61916 105.181 2.92354 104.341 2.97789L104.733 3.3562C104.683 2.46915 105.156 1.39946 103.743 1.30162C102.649 1.22118 102.142 2.22129 101.8 3.04095L102.518 2.94963C102.162 2.23868 101.431 1.2864 100.495 1.80385C99.4037 2.40827 100.076 3.76059 100.289 4.63025L100.668 4.15194C99.8273 4.15194 98.5816 4.49546 98.9983 5.56949C99.5351 6.95877 102.371 6.47393 103.451 6.49568C103.958 6.50655 103.958 5.75212 103.451 5.74125H103.444Z" fill="#C3937C"/>
<path d="M104.124 4.61722C103.523 4.00628 102.511 3.61928 101.725 4.16282C101.091 4.59765 100.878 5.54341 101.478 6.09564C102.078 6.64788 103.442 6.7218 104.196 6.48916C104.95 6.25653 105.453 5.40209 105.002 4.70201C104.737 4.28892 104.058 4.66722 104.323 5.08249C104.905 5.98476 102.708 5.84562 102.285 5.69343C101.761 5.5021 101.818 4.87595 102.332 4.69332C102.785 4.53025 103.27 4.85203 103.564 5.14989C103.913 5.50428 104.47 4.96943 104.119 4.61722H104.124Z" fill="#C3937C"/>
<path d="M122.713 15.9445C131.258 18.3611 140.15 19.446 149.053 19.1579C149.556 19.1427 149.558 18.3883 149.053 18.4035C140.221 18.6929 131.398 17.6189 122.922 15.2227C122.435 15.0857 122.226 15.8119 122.711 15.9489L122.713 15.9445Z" fill="#C3937C"/>
<path d="M130.622 17.7013C140.433 15.4181 150.76 16.3993 159.915 20.4842C160.368 20.6864 160.769 20.0363 160.311 19.832C150.971 15.6545 140.43 14.6464 130.416 16.9729C129.924 17.0882 130.133 17.8143 130.624 17.7013H130.622Z" fill="#C3937C"/>
<path d="M130.561 18.0231C139.423 23.4824 150.131 23.0041 160.046 21.0191C160.54 20.9212 160.332 20.195 159.838 20.2929C150.124 22.2366 139.643 22.7236 130.957 17.373C130.531 17.1099 130.137 17.7622 130.561 18.0252V18.0231Z" fill="#C3937C"/>
<path d="M136.827 18.4122C139.754 17.5969 142.804 16.9686 145.859 16.8903C146.362 16.8773 146.365 16.125 145.859 16.1381C142.736 16.2185 139.609 16.8555 136.619 17.6861C136.134 17.8209 136.34 18.5557 136.827 18.4144V18.4122Z" fill="#C3937C"/>
<path d="M146.274 19.021C150.534 18.6857 154.823 19.093 158.932 20.2233C159.419 20.3559 159.627 19.6298 159.143 19.4971C154.965 18.3465 150.606 17.9297 146.274 18.2666C145.773 18.3057 145.769 19.0601 146.274 19.021Z" fill="#C3937C"/>
<path d="M139.842 19.0384C141.555 20.6773 143.722 21.8092 146.086 22.2996C146.58 22.4018 146.79 21.6756 146.294 21.5713C144.065 21.1122 142.02 20.0455 140.406 18.4992C140.332 18.4285 140.232 18.3889 140.128 18.3889C140.024 18.3889 139.924 18.4285 139.851 18.4992C139.777 18.5698 139.736 18.6656 139.736 18.7655C139.736 18.8654 139.777 18.9612 139.851 19.0318L139.842 19.0384Z" fill="#C3937C"/>
<path d="M146.426 19.034C148.822 20.5274 151.558 21.4427 154.402 21.7017C154.903 21.7495 154.901 20.9951 154.402 20.9473C151.695 20.6926 149.093 19.8123 146.818 18.3818C146.392 18.1187 145.998 18.771 146.421 19.034H146.426Z" fill="#C3937C"/>
<path d="M83.8445 26.1522C87.6535 20.316 93.227 15.7347 99.8205 13.0203C100.273 12.829 99.8839 12.1789 99.4241 12.3681C92.7126 15.1468 87.042 19.8222 83.1673 25.7717C82.8978 26.1848 83.5772 26.5631 83.8467 26.1522H83.8445Z" fill="#C3937C"/>
<path d="M86.3289 22.5235C87.8939 15.0944 95.0802 10.2809 102.903 11.5375C103.397 11.618 103.609 10.8853 103.111 10.8114C94.8899 9.48947 87.2281 14.4574 85.5725 22.3344C85.4729 22.8083 86.2293 23.0105 86.3289 22.5344V22.5235Z" fill="#C3937C"/>
<path d="M86.9111 21.9931C90.2331 21.5575 93.4062 20.3943 96.1851 18.5934C98.964 16.7924 101.274 14.4021 102.937 11.6071C103.188 11.1853 102.509 10.8049 102.257 11.2245C100.646 13.9346 98.404 16.251 95.7068 17.9929C93.0095 19.7348 89.9297 20.8552 86.7073 21.2669C86.209 21.3321 86.4196 22.0583 86.9156 21.9931H86.9111Z" fill="#C3937C"/>
<path d="M89.6628 19.0362C90.7474 16.9606 92.1531 15.0548 93.8323 13.3834C94.1834 13.0355 93.6285 12.5007 93.2775 12.8507C91.5444 14.5656 90.0934 16.5237 88.9743 18.6579C88.7478 19.0927 89.4273 19.4732 89.6538 19.0384L89.6628 19.0362Z" fill="#C3937C"/>
<path d="M95.2251 15.0727C96.8356 13.3617 98.9095 12.1138 101.216 11.468C101.698 11.331 101.492 10.5983 101.005 10.7396C98.5664 11.4207 96.3717 12.736 94.6634 14.54C94.3237 14.8966 94.8899 15.4315 95.2206 15.0727H95.2251Z" fill="#C3937C"/>
<path d="M92.0476 17.1795C94.1783 17.4253 96.3392 17.2121 98.3732 16.5555C98.8489 16.4033 98.645 15.675 98.1626 15.8272C96.1961 16.461 94.1069 16.6652 92.0476 16.425C91.5471 16.3685 91.5516 17.1229 92.0476 17.1795Z" fill="#C3937C"/>
<path d="M97.9022 14.1748C98.8571 14.2916 99.8266 14.2318 100.758 13.9987C101.247 13.8769 101.039 13.1508 100.547 13.2703C99.6841 13.484 98.7858 13.535 97.9022 13.4204C97.4017 13.3595 97.4062 14.1139 97.9022 14.1748Z" fill="#C3937C"/>
<path d="M161.333 15.9185C165.099 14.7575 168.895 15.4576 172.19 17.4882C172.618 17.7513 173.012 17.099 172.587 16.836C169.133 14.7096 165.07 13.9769 161.124 15.1901C160.644 15.338 160.85 16.0598 161.333 15.9185Z" fill="#C3937C"/>
<path d="M160.486 16.0054C163.677 18.4666 168.734 18.247 172.55 17.6839C173.049 17.6099 172.836 16.8838 172.342 16.9577C168.861 17.4708 163.946 17.7143 161.041 15.4727C160.651 15.1727 160.092 15.7032 160.486 16.0054Z" fill="#C3937C"/>
<path d="M162.524 16.325C165.501 16.5125 168.465 16.8507 171.404 17.3382C171.898 17.4186 172.111 16.6859 171.613 16.6098C168.604 16.1114 165.57 15.7645 162.524 15.5706C162.019 15.5401 162.021 16.2946 162.524 16.325Z" fill="#C3937C"/>
<path d="M104.171 19.571C110.151 19.1837 116.158 19.4874 122.063 20.4755C122.557 20.5581 122.77 19.8232 122.272 19.7471C116.302 18.743 110.228 18.4314 104.18 18.8188C103.677 18.8492 103.675 19.6036 104.18 19.571H104.171Z" fill="#C3937C"/>
<path d="M121.936 20.0733C122.505 19.7843 123.116 19.5791 123.748 19.4645C123.846 19.4493 124.634 19.2797 124.718 19.3775C124.523 19.1493 123.941 19.5558 123.737 19.6145C123.447 19.7015 123.313 20.1668 123.642 20.3037L124.507 20.6581L124.869 20.8081C124.787 20.8996 124.673 20.9599 124.549 20.9782C124.424 20.9966 124.297 20.9717 124.19 20.9081C124.123 20.8898 124.052 20.8892 123.985 20.9065C123.918 20.9237 123.858 20.9581 123.809 21.006C123.583 21.2582 123.683 21.3234 123.664 21.6147L123.744 21.7974C123.664 21.8211 123.578 21.8178 123.501 21.7881C123.423 21.7584 123.359 21.7041 123.318 21.6343C123.117 21.4558 122.967 21.2314 122.881 20.9821C122.654 20.3711 122.464 19.7537 121.646 19.895C121.15 19.9863 121.359 20.7146 121.855 20.6233C121.866 20.6233 122.489 21.8822 122.62 22.0213C122.884 22.3285 123.248 22.5409 123.653 22.6236C123.818 22.6499 123.988 22.6282 124.14 22.5612C124.292 22.4941 124.42 22.3848 124.507 22.2474C124.579 22.1067 124.604 21.948 124.579 21.793C124.56 21.7121 124.532 21.6334 124.496 21.5582C124.45 21.3712 124.407 21.3625 124.364 21.5343L123.981 21.63C124.645 21.8474 125.653 21.8822 125.793 21.0125C125.934 20.1428 124.647 19.9015 124.045 19.6515C124.015 19.8819 123.984 20.1102 123.952 20.3407C124.416 20.2037 125.023 19.9798 125.288 19.5558C125.338 19.485 125.371 19.4047 125.386 19.3204C125.401 19.2361 125.396 19.1498 125.373 19.0673C125.35 18.9848 125.308 18.9081 125.252 18.8423C125.195 18.7766 125.124 18.7233 125.044 18.6862C124.618 18.5035 123.991 18.6644 123.547 18.7427C122.845 18.8734 122.168 19.1035 121.538 19.4254C121.085 19.6428 121.486 20.295 121.934 20.0776L121.936 20.0733Z" fill="#C3937C"/>
<path d="M44.2488 32.0485C46.2871 29.6113 48.6131 27.5154 51.5732 26.137C56.2093 23.9824 61.561 23.4497 66.6274 23.1193C67.1302 23.0867 67.1347 22.3322 66.6274 22.3648C61.5474 22.6953 56.2546 23.2345 51.5755 25.3065C48.3821 26.7153 45.8795 28.909 43.6939 31.5159C43.3791 31.8898 43.9317 32.4268 44.2488 32.0485Z" fill="#C3937C"/>
<path d="M46.5091 29.6461C49.7161 22.0496 59.0154 21.193 66.3081 22.741C66.8018 22.8453 67.0125 22.1191 66.5187 22.0148C58.7436 20.3646 49.1318 21.4408 45.7527 29.4439C45.5624 29.8939 46.3234 30.0961 46.5091 29.6461Z" fill="#C3937C"/>
<path d="M46.9666 29.4178C51.4962 29.4047 56.1572 28.983 60.5555 27.822C63.4861 27.0436 66.1632 25.5891 67.1982 22.7018C67.3635 22.2431 66.6048 22.0496 66.4417 22.5018C65.2074 25.9391 61.4591 26.9305 58.114 27.598C54.4481 28.3129 50.7164 28.6705 46.9757 28.6655C46.8718 28.6655 46.7721 28.7051 46.6986 28.7757C46.6251 28.8462 46.5839 28.9419 46.5839 29.0417C46.5839 29.1414 46.6251 29.2371 46.6986 29.3076C46.7721 29.3782 46.8718 29.4178 46.9757 29.4178H46.9666Z" fill="#C3937C"/>
<path d="M50.4136 26.6414C52.2471 25.0066 54.3288 23.6489 56.5875 22.6149C57.0404 22.3974 56.6463 21.7561 56.1911 21.9626C53.8691 23.0293 51.7306 24.4304 49.8496 26.1174C49.4805 26.4501 50.0354 26.9871 50.4045 26.6501L50.4136 26.6414Z" fill="#C3937C"/>
<path d="M58.4492 23.7889C60.1637 22.8014 62.1655 22.3742 64.1543 22.5714C64.6571 22.6171 64.6525 21.8626 64.1543 21.817C62.0257 21.6183 59.887 22.0809 58.0529 23.1367C57.618 23.3845 58.0121 24.0368 58.4492 23.7889Z" fill="#C3937C"/>
<path d="M51.5121 26.1479C54.8453 27.5042 58.526 27.8685 62.0774 27.1936C62.5734 27.098 62.365 26.3718 61.869 26.4675C58.5206 27.0997 55.052 26.7622 51.9039 25.4978C51.4509 25.3065 51.0432 25.9565 51.5075 26.15L51.5121 26.1479Z" fill="#C3937C"/>
<path d="M56.2161 24.6281C58.7301 25.4652 62.9743 26.6522 65.5585 25.4108C66.0114 25.1934 65.6128 24.5411 65.1621 24.7586C64.1135 25.263 62.578 25.0803 61.4592 24.976C59.7439 24.8081 58.055 24.4484 56.4268 23.9041C55.9466 23.7454 55.7473 24.4737 56.2161 24.6303V24.6281Z" fill="#C3937C"/>
<path d="M69.1459 32.5595C74.5591 34.237 80.2408 34.9733 85.9236 34.7336C86.4286 34.714 86.4309 33.9596 85.9236 33.9814C80.3116 34.2182 74.7006 33.4923 69.3542 31.8376C68.8718 31.6876 68.6748 32.416 69.1459 32.5638V32.5595Z" fill="#C3937C"/>
<path d="M74.9959 33.8531C80.7997 32.3208 86.9661 32.6498 92.5572 34.7901C93.0283 34.9684 93.2367 34.2401 92.7656 34.064C87.0378 31.8847 80.7258 31.5588 74.7875 33.1356C74.6872 33.1621 74.602 33.2258 74.5506 33.3127C74.4992 33.3995 74.4859 33.5024 74.5135 33.5987C74.5411 33.695 74.6075 33.7768 74.6979 33.8261C74.7884 33.8755 74.8956 33.8883 74.9959 33.8618V33.8531Z" fill="#C3937C"/>
<path d="M75.0797 34.5162C80.5357 37.9731 87.2123 37.6818 92.8381 34.8119C93.2911 34.5836 92.8879 33.9422 92.4418 34.1597C87.056 36.9078 80.6987 37.173 75.4761 33.8661C75.0526 33.5987 74.6607 34.251 75.0797 34.5184V34.5162Z" fill="#C3937C"/>
<path d="M81.1154 34.3248C82.7008 33.5769 84.3315 33.2878 86.098 33.2182C86.6008 33.1986 86.6031 32.4442 86.098 32.4638C84.2024 32.5377 82.4358 32.8682 80.7236 33.6748C80.2707 33.8922 80.667 34.5444 81.12 34.327L81.1154 34.3248Z" fill="#C3937C"/>
<path d="M85.6586 34.5466C87.665 34.3585 89.6857 34.3585 91.6921 34.5466C92.1949 34.5923 92.1904 33.8378 91.6921 33.7922C89.6856 33.6063 87.6651 33.6063 85.6586 33.7922C85.1604 33.8378 85.1559 34.5923 85.6586 34.5466Z" fill="#C3937C"/>
<path d="M77.9877 34.4857C80.2563 35.8619 82.8169 36.7332 85.4819 37.036C85.9802 37.0991 85.9756 36.3446 85.4819 36.2816C82.9561 35.9838 80.5317 35.1474 78.3863 33.8335C77.9582 33.5726 77.5641 34.2248 77.9877 34.4857Z" fill="#C3937C"/>
<path d="M83.3122 35.0597C85.3983 35.8137 87.6367 36.0985 89.8553 35.8924C90.3558 35.8489 90.3603 35.0945 89.8553 35.1402C87.705 35.34 85.5357 35.064 83.5138 34.3335C83.0382 34.164 82.8344 34.8923 83.3032 35.0597H83.3122Z" fill="#C3937C"/>
<path d="M199.268 33.3095C188.649 31.1897 176.989 31.9855 166.519 34.5857C166.03 34.7075 166.238 35.4337 166.728 35.3119C177.048 32.7486 188.585 31.9463 199.06 34.0379C199.551 34.1357 199.762 33.4095 199.268 33.3095Z" fill="#C3937C"/>
<path d="M186.735 32.1311C180.57 30.3157 171.787 30.3918 166.598 34.4879C166.207 34.7945 166.766 35.325 167.153 35.0206C172.077 31.1462 180.692 31.1397 186.526 32.8573C187.011 33.0008 187.217 32.2724 186.735 32.1311Z" fill="#C3937C"/>
<path d="M187.985 32.5377C185.174 34.8909 181.689 36.3761 177.986 36.7996C174.282 37.2232 170.532 36.5653 167.223 34.9119C166.77 34.6945 166.376 35.3467 166.827 35.5642C174.025 39.0972 182.42 38.1384 188.54 33.0726C188.923 32.7551 188.365 32.2247 187.985 32.5399V32.5377Z" fill="#C3937C"/>
<path d="M170.757 36.8012C173.431 35.9642 176.267 34.9597 178.532 33.3226C178.93 33.0334 178.532 32.379 178.135 32.6703C175.916 34.2792 173.166 35.2598 170.548 36.0773C170.07 36.2273 170.274 36.9469 170.757 36.8056V36.8012Z" fill="#C3937C"/>
<path d="M178.104 37.3796C180.987 35.9794 184.108 34.6401 186.649 32.6986C187.043 32.3964 186.483 31.8659 186.092 32.1638C183.614 34.0596 180.52 35.3619 177.712 36.7295C177.259 36.9469 177.657 37.5992 178.108 37.3817L178.104 37.3796Z" fill="#C3937C"/>
<path d="M170.428 33.1813C171.673 33.1812 172.914 33.3272 174.122 33.6161C174.616 33.7226 174.826 32.9965 174.333 32.8899C173.055 32.5853 171.744 32.432 170.428 32.4334C169.923 32.4486 169.921 33.203 170.428 33.1878V33.1813Z" fill="#C3937C"/>
<path d="M175.846 32.1964C177.648 32.3703 179.442 32.6065 181.227 32.9051C181.721 32.9878 181.933 32.2529 181.435 32.179C179.581 31.8688 177.718 31.6231 175.846 31.4419C175.343 31.3941 175.347 32.1464 175.846 32.1964Z" fill="#C3937C"/>
<path d="M188.898 24.6325C197.195 29.8725 205.933 34.4402 215.02 38.2883C215.473 38.484 215.878 37.8339 215.416 37.6361C206.329 33.788 197.592 29.2202 189.294 23.9802C188.871 23.7128 188.476 24.365 188.898 24.6325Z" fill="#C3937C"/>
<path d="M200.093 30.2114C193.504 28.8264 186.957 26.6762 183.439 20.7125C183.19 20.2885 182.511 20.669 182.76 21.093C186.384 27.2306 193.079 29.5091 199.882 30.9375C200.376 31.0419 200.584 30.3157 200.09 30.2114H200.093Z" fill="#C3937C"/>
<path d="M183.254 21.2386C190.546 21.3539 197.554 24.5847 200.537 31.255C200.736 31.6898 201.411 31.3158 201.216 30.8745C198.129 23.9715 190.798 20.6038 183.256 20.4842C182.749 20.4842 182.749 21.2299 183.256 21.2386H183.254Z" fill="#C3937C"/>
<path d="M185.863 21.6235C187.683 22.5714 189.313 23.823 190.676 25.3195C191.009 25.6869 191.563 25.1521 191.23 24.7868C189.823 23.2392 188.139 21.9442 186.259 20.9625C185.806 20.7299 185.419 21.3821 185.863 21.6148V21.6235Z" fill="#C3937C"/>
<path d="M191.998 23.178C193.584 24.9173 195.126 26.7632 196.204 28.8482C196.43 29.283 197.11 28.9025 196.883 28.4677C195.778 26.3283 194.193 24.4303 192.555 22.6431C192.22 22.2801 191.668 22.8149 192.001 23.178H191.998Z" fill="#C3937C"/>
<path d="M185.149 23.7019C186.671 24.215 188.094 24.8608 189.704 25.1064C190.168 25.1782 190.37 24.4955 189.901 24.4238C188.293 24.1781 186.868 23.5323 185.347 23.0192C184.894 22.8671 184.703 23.5519 185.149 23.7019Z" fill="#C3937C"/>
<path d="M188.794 26.8088C190.415 27.3045 192.096 27.4045 193.758 27.7002C194.252 27.7894 194.465 27.0632 193.966 26.974C192.306 26.6762 190.623 26.5784 189.004 26.0805C188.522 25.9326 188.325 26.661 188.794 26.8088Z" fill="#C3937C"/>
<path d="M181.625 24.0454C181.684 23.1932 181.961 20.4385 180.853 19.9645C179.746 19.4906 179.193 21.3799 179.152 22.0691L179.707 21.7626C178.801 21.1799 176.736 19.9167 175.778 21.1495C174.962 22.1931 176.36 23.1279 177.295 23.2801V22.5953C176.466 22.7148 174.285 22.6453 174.201 23.8606C174.118 25.076 176.142 24.9477 176.878 24.9803C176.792 24.7803 176.706 24.5781 176.618 24.3759C175.676 25.126 175.61 26.2848 177.003 26.5109C178.677 26.7805 180.488 25.7934 181.619 24.7042C181.68 24.6365 181.713 24.5489 181.71 24.4591C181.706 24.3692 181.668 24.2839 181.602 24.2204C181.536 24.1568 181.447 24.1198 181.353 24.1168C181.259 24.1137 181.168 24.145 181.098 24.2041C180.435 24.8678 179.606 25.3567 178.69 25.6239C178.101 25.7891 175.794 25.95 177.141 24.8781C177.406 24.6607 177.171 24.2889 176.878 24.2715C176.425 24.2476 175.03 24.0759 175.972 23.4932C176.294 23.2975 177.105 23.3345 177.481 23.2758C177.857 23.2171 177.83 22.6474 177.481 22.5909C176.693 22.6185 176.55 22.3894 177.053 21.9039C177.121 21.4104 177.338 21.2843 177.7 21.5278C178.194 21.5473 178.93 22.1213 179.322 22.3692C179.378 22.3996 179.442 22.4155 179.506 22.4154C179.571 22.4153 179.634 22.3991 179.69 22.3685C179.747 22.3378 179.793 22.2937 179.827 22.2405C179.86 22.1873 179.878 22.1267 179.879 22.0648C179.802 21.485 180.071 21.1103 180.686 20.9407C180.78 21.3586 180.845 21.7821 180.88 22.2083C180.929 22.8183 180.929 23.431 180.88 24.0411C180.849 24.4955 181.587 24.4933 181.619 24.0411L181.625 24.0454Z" fill="#C3937C"/>
<path d="M180.221 22.8323C179.801 22.7737 179.372 22.8657 179.018 23.0907C178.664 23.3158 178.408 23.6582 178.299 24.0527C178.191 24.4471 178.238 24.8661 178.431 25.2296C178.623 25.5932 178.949 25.8759 179.345 26.0239C181.383 26.8306 182.318 23.2715 180.31 23.0954C179.836 23.054 179.838 23.7628 180.31 23.8041C180.91 23.8563 180.692 24.7847 180.491 25.1086C180.174 25.6 179.558 25.4826 179.22 25.076C178.602 24.3281 179.329 23.4476 180.221 23.5541C180.692 23.6085 180.688 22.9019 180.221 22.8453V22.8323Z" fill="#C3937C"/>
<path d="M156.812 3.85625C156.62 3.43881 156.262 2.75613 156.359 2.28651C156.187 1.87342 156.291 1.77123 156.674 1.9843C156.999 1.95966 157.15 2.1046 157.127 2.41913C157.145 2.47833 157.178 2.53208 157.224 2.57516C157.27 2.61824 157.327 2.64918 157.389 2.66494C157.451 2.68071 157.516 2.68077 157.578 2.66513C157.64 2.64948 157.697 2.61866 157.743 2.57567C158.253 2.07561 158.773 1.5473 159.412 1.19943C159.948 0.71387 160.372 0.79431 160.685 1.44076C160.453 1.78668 160.176 2.10362 159.863 2.38435C159.657 2.58654 159.79 3.02138 160.123 2.98876C161.319 2.87353 162.452 2.78874 163.534 3.42359V2.81266C162.482 3.32586 161.345 3.65705 160.173 3.79103C160.096 3.79652 160.023 3.82476 159.963 3.87189C159.904 3.91901 159.861 3.9827 159.84 4.05419C159.82 4.12569 159.823 4.20148 159.85 4.27115C159.876 4.34082 159.924 4.40095 159.987 4.44327C160.419 4.54763 160.471 4.78461 160.144 5.15422C160.11 5.78473 159.763 5.91083 159.1 5.53035C158.386 5.32007 157.742 4.93404 157.231 4.41066C157.162 4.34536 157.068 4.30894 156.971 4.30929C156.874 4.30964 156.781 4.34674 156.712 4.41254C156.643 4.47834 156.604 4.56754 156.604 4.6608C156.603 4.75405 156.64 4.84385 156.708 4.91072C157.614 5.78038 159.797 7.05009 161.118 6.18912C162.25 5.44339 161.118 4.26716 160.359 3.83233L160.173 4.48458C161.474 4.33287 162.737 3.96502 163.906 3.3975C163.96 3.36579 164.006 3.321 164.037 3.26747C164.069 3.21395 164.085 3.15351 164.085 3.09203C164.085 3.03055 164.069 2.97012 164.037 2.91659C164.006 2.86307 163.96 2.81827 163.906 2.78656C162.721 2.09735 161.469 2.13432 160.123 2.26042L160.384 2.86701C160.918 2.34521 162.384 0.934181 161.385 0.238451C160.062 -0.681216 157.988 1.30379 157.22 2.05387L157.838 2.21041C157.655 1.48424 156.871 0.19497 155.918 1.00158C155.084 1.70601 155.841 3.45403 156.185 4.19759C156.377 4.61503 157.014 4.25412 156.823 3.84103L156.812 3.85625Z" fill="#C3937C"/>
<path d="M157.763 2.9953C156.946 2.9953 156.033 3.25185 155.711 4.04976C155.39 4.84768 155.845 5.54776 156.658 5.77604C157.387 5.98259 158.35 5.82387 158.721 5.1238C158.8 4.98016 158.847 4.82226 158.859 4.66018C158.871 4.49811 158.848 4.33543 158.79 4.18257C158.733 4.0297 158.643 3.89001 158.526 3.77243C158.41 3.65484 158.268 3.56195 158.112 3.4997C157.659 3.32794 157.478 4.01498 157.915 4.18239C158.219 4.29979 158.142 4.74985 157.967 4.9303C157.675 5.22816 157.093 5.20859 156.728 5.06075C156.638 5.02671 156.558 4.97217 156.494 4.90181C156.431 4.83145 156.386 4.74737 156.364 4.65676C156.341 4.56615 156.342 4.4717 156.366 4.38151C156.39 4.29133 156.437 4.20808 156.502 4.1389C156.783 3.76712 157.331 3.70407 157.77 3.70407C157.868 3.70407 157.962 3.66674 158.031 3.60028C158.1 3.53381 158.139 3.44368 158.139 3.34969C158.139 3.2557 158.1 3.16556 158.031 3.0991C157.962 3.03264 157.868 2.9953 157.77 2.9953H157.763Z" fill="#C3937C"/>
<path d="M54.495 60.9515C54.495 60.8938 54.3138 60.8938 54.3138 60.9515C54.4346 62.4244 53.317 63.493 51.988 64.1862C51.988 64.1862 51.988 64.1862 51.9578 64.1862C51.8672 64.2439 51.7766 64.3017 51.6557 64.3306C51.5953 64.3594 51.5349 64.3883 51.4745 64.4172C51.4443 64.4461 51.4141 64.4461 51.3839 64.4461C50.5986 64.7638 49.8132 64.9371 49.2695 65.0237C49.2091 65.0237 49.1789 65.0237 49.1185 65.0237C48.9373 65.0526 48.7561 65.0815 48.5748 65.0815C48.4238 65.0815 48.3332 65.0815 48.3332 65.0815C47.5176 65.0815 44.3159 65.0237 43.1983 64.9948V55.8108H47.8801V55.4931H43.1983V53.6159C43.1983 51.9986 43.1983 50.7567 43.1983 49.8325V46.9156H47.8801C47.9707 46.9156 48.0311 46.9156 48.1217 46.9156C48.5446 46.9445 48.9373 46.9733 49.3299 47.06H49.3602C51.9276 47.4065 53.5889 48.7639 53.7701 51.0166C53.7701 51.0744 53.9513 51.0744 53.9513 51.0166C53.9211 50.0924 53.8305 47.5509 53.7701 46.5979C53.7701 46.5979 53.7701 46.5979 53.7399 46.5979H40.9933V65.3991H54.344V65.3125C54.3742 64.2728 54.4648 61.8468 54.495 60.9515Z" fill="#333333"/>
<path d="M75.3379 46.5979H68.9647C68.9043 46.5979 68.9043 46.7712 68.9647 46.7712H69.3573C71.1394 46.7712 72.257 46.8867 72.3174 53.2115V62.1934L70.8676 60.4606L70.6863 60.2584L60.4468 48.0708C59.9938 47.5798 59.5407 47.0022 59.3292 46.6556C59.3292 46.6268 59.299 46.5979 59.299 46.5979H56.0671C55.9161 46.5979 55.765 46.5979 55.614 46.5979V46.9156C56.3994 47.1177 57.0035 47.5509 57.4263 47.8975C57.4565 47.9553 57.4565 47.9842 57.4867 48.013L57.5169 58.3812C57.4565 64.8504 56.641 65.197 55.0401 65.197H54.8589C54.7683 65.197 54.7683 65.3991 54.8287 65.3703H61.202C61.2624 65.3703 61.2624 65.197 61.202 65.197H60.7791C58.9366 65.197 57.819 65.0815 57.8492 58.0635V48.3885L58.0002 48.5329L71.6529 64.8793C71.8341 65.0815 72.0456 65.2836 72.1966 65.3991C72.257 65.428 72.3174 65.4569 72.3778 65.4569C72.4684 65.4569 72.5289 65.428 72.5591 65.3991H72.6497V53.7603C72.7101 47.1466 73.5256 46.7712 75.1265 46.7712H75.3077C75.3983 46.7712 75.3681 46.5979 75.3379 46.5979Z" fill="#333333"/>
<path d="M92.4845 60.0274V60.4317C92.4845 61.2981 92.0012 62.1934 91.2159 63.0021H91.1857C90.6722 63.493 90.0077 63.984 89.2526 64.4172H89.2224C89.1921 64.4461 89.1619 64.4461 89.1317 64.475C88.7693 64.6482 88.4068 64.8215 88.0142 64.9659C87.7725 65.0526 87.5309 65.1103 87.2892 65.1681C87.259 65.1681 87.2288 65.1681 87.1986 65.197C87.108 65.197 86.9872 65.2259 86.8966 65.2547C86.6549 65.2836 86.4133 65.3125 86.1414 65.3414C85.8394 65.3703 85.5373 65.3703 85.2051 65.3703C80.0702 65.3703 77.0799 61.558 77.0799 56.013C77.0799 50.4101 80.3421 46.5979 85.4467 46.5979C85.6884 46.5979 85.8998 46.5979 86.1112 46.6268C86.1414 46.6268 86.1414 46.6268 86.1716 46.6268C86.8059 46.6845 87.3798 46.8001 87.9235 46.9733C88.3162 47.1177 88.7089 47.3199 89.0713 47.4932C89.1015 47.5221 89.1317 47.5221 89.1619 47.5509C89.9171 47.9553 90.6118 48.4462 91.1253 48.9661C91.1555 48.9661 91.1555 48.9661 91.1555 48.995C91.9408 49.7748 92.4241 50.67 92.4241 51.5365V51.9408C92.4241 51.9986 92.6053 51.9986 92.6053 51.9408L92.5751 50.5834V50.5256L92.4543 47.5221C90.9138 46.8578 87.7725 46.3091 85.3863 46.3091C79.5567 46.3091 74.5427 50.3235 74.5427 56.013C74.5427 61.558 79.1641 65.6591 85.2655 65.6591C88.3464 65.6591 90.9742 65.1103 92.5147 64.4461L92.6355 61.3847L92.6657 60.0274C92.6657 59.9696 92.4845 59.9696 92.4845 60.0274Z" fill="#333333"/>
<path d="M111.69 65.197C110.029 65.197 109.878 64.8793 109.878 63.0309V48.3018C109.908 47.0311 110.21 46.7712 111.69 46.7712C111.75 46.7712 111.75 46.569 111.69 46.569H105.921C105.83 46.569 105.83 46.7712 105.921 46.7712C107.34 46.7712 107.642 47.0022 107.703 48.2152V56.475H97.403V48.3018C97.4634 47.0311 97.7352 46.7712 99.2455 46.7712C99.2757 46.7712 99.3059 46.569 99.2455 46.569H93.4461C93.3857 46.569 93.3857 46.7712 93.4461 46.7712C94.8657 46.7712 95.198 47.0022 95.2584 48.2152V63.9262C95.1678 64.9948 94.8355 65.197 93.4461 65.197C93.4159 65.197 93.3857 65.3991 93.4461 65.3991C94.3221 65.3991 96.0437 65.3991 96.4968 65.3991C96.9499 65.3991 98.3695 65.3991 99.2455 65.3991C99.3059 65.3991 99.3059 65.197 99.2455 65.197C97.554 65.197 97.403 64.8793 97.403 63.0309V56.7639H107.703V63.9262C107.642 64.9948 107.28 65.197 105.921 65.197C105.86 65.197 105.86 65.3991 105.921 65.3991C106.797 65.3991 108.488 65.3991 108.941 65.3991C109.394 65.3991 110.844 65.3991 111.69 65.3991C111.781 65.3991 111.75 65.197 111.69 65.197Z" fill="#333333"/>
<path d="M132.954 65.1392C131.745 65.1392 130.99 64.9659 130.084 63.262L122.775 46.569C122.744 46.5401 122.654 46.5112 122.472 46.5112H122.201C122.05 46.5112 122.05 46.5401 122.019 46.569L121.083 48.7639L119.814 51.8253L116.522 59.6519C116.401 59.9985 116.22 60.4028 116.039 60.8071V60.836L115.404 62.3667C114.287 64.6194 113.32 65.1103 111.81 65.1103C111.75 65.1103 111.75 65.3703 111.84 65.3703C112.022 65.3703 113.471 65.3703 114.136 65.3703V65.3991C114.287 65.3703 114.408 65.3991 114.529 65.3991V65.3703C115.102 65.3703 116.885 65.3703 117.519 65.3703C117.609 65.3703 117.609 65.1103 117.489 65.1103C115.163 65.1103 115.314 63.7241 116.25 61.2692L118.032 56.966H124.979L125.372 57.8036L125.402 57.8613L125.735 58.6411C125.795 58.7566 125.855 58.8721 125.886 58.9588L125.735 58.6411L126.006 59.2187C126.218 59.6808 126.399 60.114 126.58 60.5183L126.611 60.5761L127.426 62.4244C128.393 64.7638 128.393 65.1392 126.731 65.1392C126.641 65.1392 126.641 65.3991 126.731 65.3991C127.426 65.3991 129.691 65.3991 130.084 65.3991C130.447 65.3991 132.803 65.3991 132.954 65.3991C133.044 65.3991 133.044 65.1392 132.954 65.1392ZM118.123 56.7061L120.751 50.4101L121.385 48.8795L124.859 56.7061H118.123Z" fill="#333333"/>
<path d="M153.741 46.5979H147.368C147.308 46.5979 147.308 46.7712 147.368 46.7712H147.761C149.543 46.7712 150.66 46.8867 150.721 53.2115V62.1934L149.271 60.4606L149.09 60.2584L138.85 48.0708C138.397 47.5798 137.944 47.0022 137.733 46.6556C137.733 46.6268 137.702 46.5979 137.702 46.5979H134.47C134.319 46.5979 134.168 46.5979 134.017 46.5979V46.9156C134.803 47.1177 135.407 47.5509 135.83 47.8975C135.86 47.9553 135.86 47.9842 135.89 48.013L135.92 58.3812C135.86 64.8504 135.044 65.197 133.444 65.197H133.262C133.172 65.197 133.172 65.3991 133.232 65.3703H139.605C139.666 65.3703 139.666 65.197 139.605 65.197H139.182C137.34 65.197 136.222 65.0815 136.253 58.0635V48.3885L136.404 48.5329L150.056 64.8793C150.238 65.0815 150.449 65.2836 150.6 65.3991C150.66 65.428 150.721 65.4569 150.781 65.4569C150.872 65.4569 150.932 65.428 150.962 65.3991H151.053V53.7603C151.113 47.1466 151.929 46.7712 153.53 46.7712H153.711C153.802 46.7712 153.772 46.5979 153.741 46.5979Z" fill="#333333"/>
<path d="M169.956 49.6881V49.6303L169.835 46.5979H153.736V46.6268L153.615 49.6303V49.6881L153.585 51.0455C153.585 51.1033 153.766 51.1033 153.766 51.0455C153.706 47.3488 156.455 46.8867 157.421 46.8578H160.714V63.3486C160.714 64.9082 160.502 65.197 158.962 65.197C158.931 65.197 158.901 65.3703 158.962 65.3703C159.415 65.3703 160.109 65.3703 160.714 65.3703V65.3991H162.888V65.3703C163.462 65.3703 164.157 65.3703 164.64 65.3703C164.701 65.3703 164.701 65.197 164.64 65.197C163.009 65.197 162.888 64.8793 162.888 63.0309V46.8578H166.181C167.147 46.8867 169.866 47.3488 169.835 51.0455C169.835 51.1033 170.017 51.1033 170.017 51.0455L169.956 49.6881Z" fill="#333333"/>
<path d="M184.636 60.9515C184.636 60.8938 184.455 60.8938 184.455 60.9515C184.576 62.4244 183.458 63.493 182.129 64.1862C182.129 64.1862 182.129 64.1862 182.099 64.1862C182.009 64.2439 181.918 64.3017 181.797 64.3306C181.737 64.3594 181.676 64.3883 181.616 64.4172C181.586 64.4461 181.555 64.4461 181.525 64.4461C180.74 64.7638 179.955 64.9371 179.411 65.0237C179.351 65.0237 179.32 65.0237 179.26 65.0237C179.079 65.0526 178.897 65.0815 178.716 65.0815C178.565 65.0815 178.475 65.0815 178.475 65.0815C177.659 65.0815 174.457 65.0237 173.34 64.9948V55.8108H178.021V55.4931H173.34V53.6159C173.34 51.9986 173.34 50.7567 173.34 49.8325V46.9156H178.021C178.112 46.9156 178.173 46.9156 178.263 46.9156C178.686 46.9445 179.079 46.9733 179.471 47.06H179.502C182.069 47.4065 183.73 48.7639 183.911 51.0166C183.911 51.0744 184.093 51.0744 184.093 51.0166C184.062 50.0924 183.972 47.5509 183.911 46.5979C183.911 46.5979 183.911 46.5979 183.881 46.5979H171.135V65.3991H184.485V65.3125C184.516 64.2728 184.606 61.8468 184.636 60.9515Z" fill="#333333"/>
<path d="M193.246 46.5979C192.854 46.5979 191.887 46.5979 190.951 46.6268C190.014 46.6268 188.534 46.6268 188.111 46.6268C187.658 46.6268 186.057 46.6268 185.182 46.6268C185.121 46.6268 185.121 46.8001 185.182 46.8001C186.631 46.8001 186.994 47.06 187.054 48.273V63.8685C186.994 64.9371 186.631 65.1392 185.242 65.1392C185.182 65.1392 185.151 65.3414 185.242 65.3414C185.906 65.3414 187.115 65.3414 187.809 65.3414L192.974 65.3703C193.125 65.3703 193.246 65.3703 193.337 65.3703C199.438 65.3703 204.06 61.558 204.06 56.013C204.06 50.3235 199.076 46.5979 193.246 46.5979ZM193.397 65.1103C192.521 65.1103 191.102 65.0526 190.105 65.0237C189.471 64.8215 189.35 64.3306 189.32 63.1465V48.3885C189.38 47.291 189.561 46.9156 190.528 46.8289H193.186C198.26 46.8289 201.553 50.4101 201.553 56.013C201.553 61.558 198.532 65.1103 193.397 65.1103Z" fill="#333333"/>
<path d="M93.4412 74.5247H88.9728C88.8856 74.5247 88.9074 74.7144 88.9728 74.7144C90.1498 74.7144 90.1716 74.9675 89.4741 76.6755V76.6966L88.8638 78.0461V78.0883C88.733 78.3835 88.5804 78.6998 88.4496 79.0372L88.3189 79.3324C88.3189 79.3324 88.3189 79.3324 88.2971 79.3324V79.3535C88.2753 79.3957 88.2753 79.4167 88.2535 79.4589L87.9919 80.0283L87.9701 80.0704L87.7085 80.6819L87.6214 80.8717L85.1147 86.5862L84.6351 85.4475L82.7606 80.8717L82.6952 80.6819L82.4336 80.0704L83.0003 78.7209C83.1093 78.4678 83.2183 78.1726 83.3491 77.8774L83.3709 77.8563L83.8286 76.7387V76.7177C84.6133 75.0729 85.3109 74.7144 86.4007 74.7144C86.4443 74.7144 86.4661 74.5247 86.3789 74.5247H78.2268C78.1396 74.5247 78.1614 74.7144 78.205 74.7144C79.2948 74.7144 79.9923 75.0729 80.777 76.7387C80.777 76.7387 80.7988 76.7387 80.7988 76.7598L81.2566 77.8563V77.8774C81.3874 78.1726 81.4963 78.4678 81.6053 78.7209L82.1721 80.0704L81.9105 80.6819L81.8451 80.8717L79.9705 85.4475L79.5128 86.5862L76.9843 80.8717L76.8971 80.6819L76.6356 80.0704L76.6138 80.0283L76.3522 79.4589C76.3304 79.4167 76.3304 79.3957 76.3086 79.3535V79.3324H76.2868L76.1778 79.0372C76.0252 78.6998 75.8727 78.3835 75.7637 78.0883L75.7419 78.0461L75.1534 76.6966L75.1316 76.6544C74.4558 74.9675 74.4558 74.7144 75.6329 74.7144C75.6983 74.7144 75.7201 74.5247 75.6329 74.5247H74.1725C74.1507 74.5247 74.1507 74.5247 74.1289 74.5247H73.4314C73.3878 74.5247 73.366 74.5247 73.3442 74.5247C73.3224 74.5247 73.2788 74.5247 73.257 74.5247H71.1645C71.0991 74.5247 71.0991 74.7144 71.1645 74.7144C72.0363 74.7144 72.5813 74.8409 73.2134 76.0851L73.7147 77.2237C73.7365 77.2448 73.7365 77.2659 73.7583 77.3081L78.5101 88.252C78.5319 88.2942 78.5755 88.3153 78.7063 88.3153H78.9025C79.0115 88.3153 79.0333 88.2942 79.0551 88.252L80.6462 84.4354L82.3028 80.4078L83.9594 84.4354L85.5506 88.252C85.5724 88.2942 85.5942 88.3153 85.7032 88.3153H85.8994C86.0302 88.3153 86.0956 88.2942 86.1173 88.252L90.8691 77.3081C90.8691 77.287 90.8691 77.287 90.8691 77.287C90.8691 77.2659 90.8691 77.2659 90.8909 77.2448L91.3923 76.0851C92.0244 74.8409 92.5693 74.7144 93.4412 74.7144C93.5066 74.7144 93.5066 74.5247 93.4412 74.5247ZM81.3874 77.54C81.3874 77.519 81.3874 77.519 81.3874 77.4979C80.7334 75.7266 80.6245 74.7355 82.3028 74.7144C83.9812 74.7355 83.8722 75.7266 83.2183 77.4979C83.2183 77.519 83.2183 77.519 83.2183 77.54L82.3028 79.7541L81.3874 77.54Z" fill="#333333"/>
<path d="M103.816 85.0469C103.816 85.0047 103.685 85.0047 103.685 85.0469C103.772 86.1223 102.966 86.9025 102.006 87.4086C102.006 87.4086 102.006 87.4086 101.985 87.4086C101.919 87.4508 101.854 87.4929 101.767 87.514C101.723 87.5351 101.68 87.5562 101.636 87.5773C101.614 87.5984 101.592 87.5984 101.571 87.5984C101.004 87.8303 100.437 87.9568 100.045 88.0201C100.001 88.0201 99.9794 88.0201 99.9358 88.0201C99.805 88.0412 99.6742 88.0623 99.5434 88.0623C99.4344 88.0623 99.369 88.0623 99.369 88.0623C98.7805 88.0623 96.47 88.0201 95.6635 87.999V81.2935H99.0421V81.0615H95.6635V79.6909C95.6635 78.51 95.6635 77.6033 95.6635 76.9285V74.7988H99.0421C99.1075 74.7988 99.1511 74.7988 99.2164 74.7988C99.5216 74.8199 99.805 74.8409 100.088 74.9042H100.11C101.963 75.1572 103.162 76.1483 103.293 77.7931C103.293 77.8352 103.423 77.8352 103.423 77.7931C103.402 77.1183 103.336 75.2627 103.293 74.5668C103.293 74.5668 103.293 74.5668 103.271 74.5668H94.0723V88.2942H103.707V88.231C103.728 87.4718 103.794 85.7006 103.816 85.0469Z" fill="#333333"/>
<path d="M110.029 74.5668C109.746 74.5668 109.048 74.5668 108.372 74.5879C107.697 74.5879 106.629 74.5879 106.323 74.5879C105.996 74.5879 104.841 74.5879 104.209 74.5879C104.165 74.5879 104.165 74.7144 104.209 74.7144C105.255 74.7144 105.517 74.9042 105.56 75.7898V87.1766C105.517 87.9568 105.255 88.1044 104.253 88.1044C104.209 88.1044 104.187 88.252 104.253 88.252C104.732 88.252 105.604 88.252 106.105 88.252L109.833 88.2731C109.942 88.2731 110.029 88.2731 110.094 88.2731C114.497 88.2731 117.832 85.4897 117.832 81.4411C117.832 77.287 114.236 74.5668 110.029 74.5668ZM110.138 88.0834C109.506 88.0834 108.481 88.0412 107.762 88.0201C107.304 87.8725 107.217 87.514 107.195 86.6495V75.8742C107.239 75.0729 107.37 74.7988 108.067 74.7355H109.985C113.647 74.7355 116.023 77.3503 116.023 81.4411C116.023 85.4897 113.843 88.0834 110.138 88.0834Z" fill="#333333"/>
<path d="M123.652 74.5668C123.369 74.5668 122.671 74.5668 121.996 74.5879C121.32 74.5879 120.252 74.5879 119.947 74.5879C119.62 74.5879 118.464 74.5879 117.832 74.5879C117.789 74.5879 117.789 74.7144 117.832 74.7144C118.879 74.7144 119.14 74.9042 119.184 75.7898V87.1766C119.14 87.9568 118.879 88.1044 117.876 88.1044C117.832 88.1044 117.81 88.252 117.876 88.252C118.355 88.252 119.227 88.252 119.729 88.252L123.456 88.2731C123.565 88.2731 123.652 88.2731 123.718 88.2731C128.121 88.2731 131.456 85.4897 131.456 81.4411C131.456 77.287 127.859 74.5668 123.652 74.5668ZM123.761 88.0834C123.129 88.0834 122.105 88.0412 121.385 88.0201C120.927 87.8725 120.84 87.514 120.819 86.6495V75.8742C120.862 75.0729 120.993 74.7988 121.69 74.7355H123.609C127.27 74.7355 129.646 77.3503 129.646 81.4411C129.646 85.4897 127.467 88.0834 123.761 88.0834Z" fill="#333333"/>
<path d="M135.662 88.1466C134.442 88.1466 134.333 87.9147 134.333 86.5651V75.8109C134.376 74.8831 134.573 74.6933 135.662 74.6933C135.684 74.6933 135.706 74.5457 135.662 74.5457H131.477C131.434 74.5457 131.434 74.6933 131.477 74.6933C132.502 74.6933 132.742 74.862 132.785 75.7477V87.2188C132.72 87.999 132.48 88.1466 131.477 88.1466C131.456 88.1466 131.434 88.2942 131.477 88.2942C132.109 88.2942 133.352 88.2942 133.679 88.2942C134.006 88.2942 135.03 88.2942 135.662 88.2942C135.706 88.2731 135.706 88.1466 135.662 88.1466Z" fill="#333333"/>
<path d="M150.659 74.5668H146.059C146.016 74.5668 146.016 74.6933 146.059 74.6933H146.343C147.629 74.6933 148.435 74.7777 148.479 79.3957V85.9536L147.433 84.6884L147.302 84.5408L139.913 75.6422C139.586 75.2838 139.259 74.862 139.106 74.609C139.106 74.5879 139.084 74.5668 139.084 74.5668H136.752C136.643 74.5668 136.534 74.5668 136.425 74.5668V74.7988C136.992 74.9464 137.428 75.2627 137.733 75.5157C137.755 75.5579 137.755 75.579 137.776 75.6001L137.798 83.1702C137.755 87.8936 137.166 88.1466 136.011 88.1466H135.88C135.815 88.1466 135.815 88.2942 135.858 88.2731H140.457C140.501 88.2731 140.501 88.1466 140.457 88.1466H140.152C138.823 88.1466 138.016 88.0623 138.038 82.9382V75.8742L138.147 75.9796L147.999 87.9147C148.13 88.0623 148.283 88.2099 148.392 88.2942C148.435 88.3153 148.479 88.3364 148.522 88.3364C148.588 88.3364 148.631 88.3153 148.653 88.2942H148.719V79.7963C148.762 74.9675 149.351 74.6933 150.506 74.6933H150.637C150.702 74.6933 150.68 74.5668 150.659 74.5668Z" fill="#333333"/>
<path d="M162.008 83.4232C160.46 82.7484 157.932 83.7817 156.973 84.4565L158.389 80.6187L158.15 80.5343L155.839 86.8392L156.079 86.9236L156.885 84.7306C157.648 84.1402 159.457 83.3389 160.656 83.8449C161.855 84.3721 162.422 85.5951 161.942 86.6284C161.354 87.9147 160.504 88.252 157.779 88.252C157.191 88.231 156.449 88.1677 155.817 87.9779C155.556 87.8936 155.294 87.7881 155.076 87.6827C153.049 86.6495 151.916 84.3721 151.916 81.4411C151.916 77.3503 154.27 74.5668 157.953 74.5668C158.128 74.5668 158.28 74.5668 158.433 74.5879C158.455 74.5879 158.455 74.5879 158.477 74.5879C158.956 74.6301 159.436 74.7355 159.85 74.8831C159.85 74.8831 160.024 74.9464 160.308 75.0729C160.373 75.1151 160.46 75.1572 160.526 75.1783C161.419 75.6422 162.88 76.6755 162.989 78.4678C162.989 78.51 163.119 78.51 163.119 78.4678L163.098 77.4768L163.076 77.4346L163.01 75.2416C161.899 74.7566 159.61 74.377 157.91 74.377C153.703 74.377 150.085 77.3081 150.085 81.4411C150.085 84.7938 152.352 87.4086 155.621 88.2099C156.144 88.3575 156.689 88.4418 157.256 88.4629C157.278 88.4629 157.278 88.4629 157.3 88.4629C157.474 88.484 157.627 88.484 157.801 88.484H157.823C161.419 88.5473 163.032 87.8514 163.577 86.6705C164.122 85.5108 163.599 84.1191 162.008 83.4232Z" fill="#333333"/>
<path d="M169.666 80.7874C167.551 79.9228 165.459 79.1004 165.459 77.2027C165.459 75.6844 166.461 74.5668 168.946 74.5668C168.946 74.5668 168.99 74.5668 169.055 74.5668C169.077 74.5668 169.121 74.5668 169.164 74.5668C169.448 74.5879 170.036 74.6512 170.668 74.862C171.017 74.9886 171.627 75.2416 172.194 75.6844C172.238 75.7266 172.303 75.7477 172.347 75.7898C172.586 76.0007 172.804 76.2538 173.022 76.549C173.306 76.9918 173.502 77.519 173.524 78.1726C173.545 78.2148 173.676 78.2148 173.676 78.1726L173.633 77.1816V77.1394L173.545 74.9253C173.502 74.9042 173.458 74.9042 173.415 74.8831C172.238 74.6301 170.995 74.356 168.946 74.356C166.352 74.356 164.173 75.7688 164.173 78.1305C164.173 80.218 166.396 81.1669 168.576 82.0315C170.668 82.875 172.717 83.6762 172.717 85.6162C172.717 87.1766 171.736 88.2731 169.491 88.2731C168.903 88.2731 168.38 88.231 167.9 88.1044C167.813 88.0833 167.726 88.0623 167.638 88.0201C167.115 87.8303 164.674 86.776 164.587 83.8871C164.587 83.8449 164.456 83.8449 164.456 83.8871L164.5 84.8993V85.0469C164.5 86.1223 164.5 87.2188 164.5 87.6827C164.5 87.8092 164.521 87.8514 164.718 87.8936C166.156 88.252 167.268 88.484 169.491 88.484C171.932 88.484 173.938 86.9447 173.938 84.6884C173.938 82.5376 171.802 81.6519 169.666 80.7874Z" fill="#333333"/>
</svg>
