<svg width="96" height="132" viewBox="0 0 96 132" fill="none" xmlns="http://www.w3.org/2000/svg">
<g filter="url(#filter0_d_9_611)">
<path d="M5.22262 122.853C5.64332 122.791 5.75057 122.778 6.01476 122.74C46.7931 116.733 75.6805 82.7297 70.4088 46.9422C68.5409 34.1221 62.3648 22.2279 52.6682 12.7764C50.6982 10.8561 46.2231 5.80416 46.2231 5.80416C60.2153 16.049 69.2513 30.6236 71.6101 46.752C76.9672 83.1192 47.6094 117.678 6.16632 123.783C5.90283 123.822 5.63948 123.859 5.37627 123.896C4.21781 124.056 4.56337 122.754 5.22262 122.853Z" fill="#C3937C"/>
<path d="M39.511 85.6661C40.9331 84.9323 42.5344 84.4663 44.0409 85.0931C45.3427 85.6294 46.2733 86.6504 46.8974 87.7656C48.3549 90.3649 48.1478 93.3359 47.3477 96.1471C46.2125 100.113 40.6991 107.066 40.5752 107.071C40.6532 107.922 41.2759 108.502 41.2737 109.362C41.2734 109.739 40.0385 110.11 40.0388 109.732C40.0607 106.982 39.6305 104.258 38.7617 101.646C37.9409 99.2114 36.499 96.9945 35.7429 94.5464C34.7047 91.146 35.8232 87.5636 39.511 85.6661ZM36.8991 88.8272C36.9141 88.8271 36.9288 88.8299 36.942 88.8356C36.9552 88.8413 36.9667 88.8497 36.9755 88.8601C36.9843 88.8704 36.9902 88.8825 36.9927 88.8954C36.9953 88.9083 36.9944 88.9217 36.9902 88.9345C35.7441 92.1472 37.3699 94.999 38.8443 97.7864C38.6608 97.1533 38.5046 96.5161 38.3831 95.8664C37.8382 92.8923 37.9551 89.8316 38.7274 86.8529C38.5472 86.9869 38.3682 87.1283 38.1989 87.2777C37.6817 87.7335 37.2431 88.2535 36.8981 88.8198L36.8991 88.8272ZM43.082 101.898C43.0062 102.035 42.9275 102.172 42.8461 102.31C42.9304 102.211 43.0101 102.111 43.092 102.01C43.0822 102.002 43.075 101.992 43.071 101.98C43.0671 101.969 43.0666 101.957 43.0696 101.945L43.082 101.898ZM41.2557 104.659C41.2675 104.532 41.2718 104.406 41.2686 104.28C41.2231 104.496 41.1794 104.71 41.1291 104.923C41.1616 104.837 41.2106 104.746 41.2557 104.659ZM41.4495 104.078C41.4495 104.078 41.4481 104.068 41.4473 104.063L41.4495 104.078ZM41.6337 103.971C41.6728 103.901 41.7162 103.831 41.7579 103.764L41.6364 103.888C41.6349 103.907 41.633 103.937 41.6329 103.966L41.6337 103.971ZM41.4226 103.851L41.4564 103.818C41.4605 103.642 41.465 103.468 41.4649 103.293C41.4414 103.424 41.4202 103.558 41.3952 103.68C41.406 103.739 41.4139 103.792 41.4218 103.846L41.4226 103.851ZM41.6478 103.63C41.8356 103.445 42.0084 103.262 42.1827 103.074L42.2086 103.03C42.6183 102.373 42.9777 101.694 43.2845 100.997C44.3553 95.8053 44.0897 90.5113 42.5078 85.5114C42.4257 85.5084 42.3462 85.5088 42.2626 85.5098C42.476 89.0709 42.4517 92.6478 42.19 96.2222C42.0559 98.2299 41.9273 100.275 41.6218 102.3C41.6488 102.732 41.6562 103.176 41.6465 103.62L41.6478 103.63ZM42.3486 103.149C42.0959 103.564 41.8436 103.967 41.6157 104.389C41.6099 104.495 41.6104 104.601 41.6025 104.708C41.6002 104.723 41.5928 104.738 41.5813 104.75C41.5697 104.763 41.5544 104.772 41.5373 104.777C41.5202 104.782 41.5021 104.782 41.4851 104.778C41.4681 104.774 41.453 104.766 41.4417 104.754C41.4272 104.878 41.4045 105.001 41.3734 105.122C43.1555 102.63 45.1325 100.178 46.2381 97.4272C45.2652 99.4823 43.9537 101.409 42.3475 103.142L42.3486 103.149ZM41.0369 104.457L41.0028 104.489C41.0074 104.52 41.0118 104.549 41.0164 104.581C41.0243 104.532 41.0331 104.49 41.0421 104.449L41.0369 104.457ZM41.102 104.155C41.1347 103.998 41.1694 103.84 41.1976 103.681C41.057 103.043 40.8296 102.426 40.5205 101.842C40.7414 102.638 40.8968 103.449 40.9854 104.268L41.102 104.155ZM38.9348 86.7148C38.9396 86.7215 38.9426 86.7291 38.9438 86.7371C38.9449 86.745 38.9442 86.7531 38.9416 86.761C37.9947 90.3274 37.996 94.0084 38.9456 97.5112C39.0891 98.0332 39.2688 98.5386 39.4646 99.036C39.6942 99.5152 39.9049 99.9972 40.0859 100.482C40.3779 101.121 40.6801 101.758 40.9671 102.408C41.0854 102.674 41.1872 102.946 41.272 103.223C41.3284 102.905 41.3821 102.584 41.4263 102.257C41.305 99.6533 40.767 97.0957 40.4978 94.4949C40.2039 91.5807 40.513 88.6457 40.8638 85.7309C40.1683 85.9588 39.5176 86.2888 38.94 86.7065L38.9348 86.7148ZM41.0725 85.6888C40.6751 89.0311 40.4022 92.3286 40.8433 95.6586C41.0934 97.5456 41.4146 99.4202 41.5642 101.311C41.7673 99.7719 41.8667 98.2144 41.9725 96.6862C42.2652 92.9603 42.3001 89.2307 42.0768 85.5183C41.7394 85.5396 41.4043 85.594 41.0777 85.6805L41.0725 85.6888ZM42.7068 85.5198C44.1934 90.2572 44.5044 95.2585 43.619 100.189C43.8512 99.6064 44.0584 99.0138 44.2557 98.3982C45.5191 94.5304 46.4827 90.5087 45.2275 86.6272C44.5845 85.9899 43.689 85.5928 42.712 85.5115L42.7068 85.5198ZM45.511 86.9174C46.4424 90.1186 45.9395 93.4009 45.0093 96.6425C44.5659 98.1695 44.1044 99.7351 43.4324 101.213C43.394 101.4 43.35 101.587 43.3003 101.775C44.916 99.7596 46.1489 97.5324 46.9481 95.1856C47.6323 92.3311 47.5529 89.1364 45.5162 86.909L45.511 86.9174ZM40.8564 105.231C40.846 105.043 40.8335 104.857 40.8148 104.671C40.6515 104.818 40.4883 104.964 40.3206 105.11C40.3829 105.532 40.4161 105.597 40.4692 106.031C40.6406 105.777 40.7726 105.505 40.8616 105.222L40.8564 105.231ZM36.631 95.1191C37.5291 97.5538 38.9018 99.7961 39.6554 102.286C39.9153 103.146 40.125 104.019 40.2836 104.902C40.4552 104.754 40.6245 104.605 40.7908 104.45C40.4376 101.396 39.0512 98.8121 37.6369 95.9367C36.5688 93.7628 35.9054 91.4765 36.7339 89.1062C35.7387 90.9578 35.8851 93.0751 36.6363 95.1108L36.631 95.1191Z" fill="#C3937C"/>
<path d="M40.3961 109.459C42.2093 109.134 44.0426 108.886 45.8814 108.676C45.903 108.63 45.9389 108.59 45.9848 108.56C50.1198 105.877 53.6039 102.319 58.1292 100.125C61.4578 98.5029 66.6449 97.271 69.531 99.9542C72.4171 102.637 69.9366 105.728 66.6634 107.04C62.2595 108.804 57.3177 108.228 52.6877 108.603C48.6246 108.93 43.7294 110.524 39.7053 111.247C39.2857 111.316 39.9794 109.534 40.3961 109.459ZM57.9691 107.223C57.2698 107.502 56.5516 107.74 55.8194 107.934C57.656 107.899 59.5041 107.868 61.3134 107.677C60.2186 107.526 59.0983 107.361 57.9683 107.218L57.9691 107.223ZM51.3888 108.13C51.4729 108.118 51.5587 108.117 51.6416 108.11C53.0999 107.884 54.5314 107.516 55.9094 107.014C55.1485 106.954 54.391 106.919 53.6351 106.922C52.8335 107.409 51.9798 107.823 51.0877 108.158L51.3888 108.13ZM53.0401 108.019C53.7294 107.985 54.4247 107.964 55.1208 107.948C55.8539 107.796 56.5734 107.591 57.2718 107.333C57.4003 107.286 57.5282 107.235 57.6561 107.184C57.2056 107.132 56.7515 107.084 56.2988 107.045C55.2355 107.432 54.1469 107.758 53.0401 108.019ZM50.0656 108.252C50.0656 108.252 50.0803 108.249 50.0887 108.248C50.1476 108.24 50.2045 108.231 50.2637 108.239L50.4757 108.22C51.5066 107.896 52.4932 107.464 53.4128 106.931C53.2604 106.932 53.1105 106.936 52.9587 106.941C51.7265 107.556 50.4152 108.031 49.0575 108.353L50.0656 108.252ZM53.6867 106.762C53.9152 106.621 54.1408 106.474 54.3632 106.321C54.4914 106.229 54.617 106.133 54.751 106.036C54.2738 106.283 53.7963 106.529 53.3154 106.766C53.4375 106.763 53.5662 106.761 53.6951 106.761L53.6867 106.762ZM47.2164 108.445C49.1329 108.325 50.8851 107.716 52.5714 106.953C51.0068 107.015 49.4578 107.331 48.0023 107.886C47.7485 108.074 47.486 108.262 47.2227 108.444L47.2164 108.445ZM47.0952 108.527L47.0659 108.546L47.0974 108.542C47.0969 108.536 47.0984 108.531 47.1015 108.526L47.0952 108.527ZM49.8433 106.494C51.289 105.804 52.7738 105.19 54.208 104.465C56.5061 103.302 58.4723 101.447 60.415 99.8127C60.1636 99.9006 59.9164 99.9879 59.6785 100.08C55.9543 101.526 52.9364 104.09 49.8496 106.494L49.8433 106.494ZM60.8724 99.6642C58.957 101.251 57.048 103.057 54.847 104.324C53.0437 105.344 51.0512 106.086 49.1749 107.019L48.4785 107.544C49.9231 107.069 51.4392 106.81 52.9626 106.778C53.7521 106.403 54.5327 105.998 55.3088 105.591C56.455 104.619 57.4765 103.514 58.7416 102.634C61.2991 100.869 64.4625 100.08 67.545 99.4131C65.5444 98.627 63.0107 98.9927 60.8681 99.6648L60.8724 99.6642ZM68.7024 100.063C68.4292 99.8576 68.1307 99.6796 67.8118 99.5322C63.4639 100.493 59.8126 101.72 56.5738 104.696C56.3579 104.894 56.1407 105.082 55.9211 105.269C56.8353 104.793 57.7532 104.328 58.6917 103.929C62.1714 102.464 65.8727 101.488 69.6564 101.039C69.3959 100.672 69.073 100.343 68.6982 100.064L68.7024 100.063ZM69.765 101.193C65.5125 101.689 61.3671 102.853 57.5271 104.631C56.8053 104.969 56.0943 105.336 55.3851 105.701C54.9101 106.078 54.4118 106.431 53.8924 106.758C54.6908 106.765 55.4901 106.808 56.2911 106.876C57.7763 106.352 59.2483 105.767 60.7596 105.303C63.7161 104.41 66.7739 103.842 69.8616 103.614C70.0595 103.224 70.1534 102.802 70.1359 102.382C70.1184 101.962 69.99 101.555 69.7608 101.193L69.765 101.193ZM69.7719 103.793C66.029 104.088 62.3366 104.877 58.8188 106.134C58.0959 106.392 57.3915 106.658 56.6686 106.915C57.1045 106.956 57.5413 107.003 57.9788 107.056C58.7423 106.706 59.5295 106.401 60.3352 106.143C62.5464 105.513 64.7478 105.825 66.9429 106.18C66.9561 106.182 66.9686 106.187 66.9795 106.193C66.9905 106.2 66.9997 106.208 67.0065 106.218C68.1877 105.614 69.2344 104.755 69.7677 103.793L69.7719 103.793ZM66.7802 106.331C63.6994 105.842 61.2541 105.889 58.2964 107.096C59.5422 107.252 60.7753 107.438 61.9764 107.597C63.2823 107.439 64.5688 107.149 65.8099 106.732C66.1403 106.616 66.4629 106.482 66.776 106.331L66.7802 106.331Z" fill="#C3937C"/>
<path d="M50.6337 71.6209C51.7518 69.4512 53.5693 68.5856 55.9754 69.7759C59.4708 71.5036 59.5063 75.6685 59.5879 78.8346C59.7099 83.4414 58.4166 87.836 56.7172 92.2169C56.6987 92.2761 56.6556 92.3277 56.5967 92.3613C56.5378 92.3948 56.4674 92.4078 56.4 92.3975C56.6724 93.6777 57.5868 94.2974 57.1431 95.8226C57.0393 96.1831 55.4697 96.8934 55.5748 96.5271C57.0657 91.3583 53.3517 88.1615 51.3397 83.8256C49.6699 80.222 48.6763 75.4174 50.6337 71.6209ZM51.02 81.1152C52.7139 84.2883 54.3587 87.4838 55.9546 90.7015C56.5899 87.3695 54.5423 84.3968 52.8524 81.562C51.2309 78.8415 50.65 76.313 50.5975 73.2576C50.3151 74.5889 50.2253 75.9402 50.3302 77.2786C50.4181 78.5788 50.6491 79.8637 51.02 81.1152ZM56.3406 91.4255C56.3323 91.2381 56.3262 91.0504 56.3137 90.8636C56.3032 90.8624 56.2932 90.8593 56.2842 90.8545C56.2753 90.8498 56.2676 90.8434 56.2616 90.8358C56.2557 90.8282 56.2516 90.8195 56.2496 90.8104C56.2477 90.8012 56.2478 90.7917 56.2502 90.7825C56.2669 90.7065 56.2797 90.6329 56.2964 90.5569C56.3132 90.4808 56.282 90.459 56.2747 90.4092C56.2155 90.5763 56.1539 90.742 56.0903 90.9079C56.0932 90.9282 56.0815 90.9507 56.0761 90.9722C56.1558 91.134 56.2373 91.2936 56.3168 91.4535C56.3236 91.4435 56.3316 91.4341 56.3406 91.4255ZM56.247 89.8569C56.2544 89.9067 56.2428 89.9593 56.2375 90.011C56.2354 89.9963 56.2476 89.9775 56.2539 89.9615C56.2601 89.9455 56.2464 89.8815 56.2457 89.8476L56.247 89.8569ZM50.7484 72.7205C50.7582 72.7269 50.766 72.7353 50.7712 72.745C50.7764 72.7548 50.7788 72.7656 50.7781 72.7765C50.7799 74.7585 50.8191 76.7313 51.5421 78.6052C52.2165 80.3524 53.3209 81.9268 54.2738 83.5518C55.0242 84.8238 55.6802 86.1549 56.0189 87.5347C55.3475 81.9371 53.7826 76.4806 51.3703 71.3256C51.1005 71.7656 50.8912 72.2309 50.747 72.7113L50.7484 72.7205ZM51.4892 71.1403C54.228 76.9521 55.8882 83.1456 56.4079 89.4899C56.4299 89.4206 56.4544 89.3529 56.4775 89.291C56.5154 87.8558 56.6155 86.4057 56.6981 84.9525C56.5814 83.0621 56.1967 81.2008 55.5531 79.412C54.4565 76.3445 52.7818 73.4961 52.3593 70.2482C52.0141 70.4969 51.7191 70.7957 51.4878 71.131L51.4892 71.1403ZM52.621 70.0701C52.5953 70.0852 52.5743 70.1034 52.5486 70.1185C53.0017 73.807 55.0821 76.9879 56.1367 80.5142C56.4426 81.5361 56.663 82.579 56.7962 83.6348C57.0649 78.8347 57.0163 74.07 54.1182 69.9193C54.1108 69.9078 54.1066 69.8949 54.1058 69.8814C54.1051 69.868 54.1078 69.8545 54.1139 69.842C54.1199 69.8294 54.1291 69.8182 54.1407 69.8091C54.1523 69.7999 54.166 69.7932 54.1807 69.7894C53.6449 69.6997 53.0827 69.7974 52.6112 70.0621L52.621 70.0701ZM54.2331 69.7949C54.2331 69.7949 54.2576 69.8007 54.2661 69.8145C57.422 74.329 57.2301 79.5629 56.8998 84.7757C56.9723 85.8471 56.9616 86.9244 56.8676 88C58.3756 82.6214 58.5317 77.0598 57.3245 71.7122C57.3217 71.7015 57.3218 71.6903 57.3246 71.6794C57.3275 71.6685 57.3331 71.6583 57.341 71.6494C57.334 71.6414 57.3277 71.6329 57.3222 71.6239C56.7051 70.8774 55.4641 69.9663 54.2234 69.7869L54.2331 69.7949ZM57.5604 71.9566C58.7828 77.5848 58.5031 83.4355 56.7431 89.052C56.716 89.2616 56.6843 89.4699 56.6485 89.6789C56.6445 89.9869 56.6428 90.2965 56.6451 90.6036C58.0932 86.6181 59.0995 82.6241 58.9187 78.4352C58.8271 76.325 58.8302 73.7783 57.5611 71.9471L57.5604 71.9566ZM56.2345 91.6976L56.1971 91.6183L56.2252 91.7217L56.2345 91.6976ZM53.8408 86.9295C53.0331 85.3371 52.2079 83.7518 51.365 82.1734C51.7452 83.2198 52.2231 84.2338 52.7937 85.2052C53.1412 85.7839 53.4963 86.3559 53.8415 86.9199L53.8408 86.9295Z" fill="#C3937C"/>
<path d="M54.8042 96.782C56.1169 96.1009 57.5001 95.5376 58.9322 95.1008C58.9417 95.0339 58.9773 94.9713 59.0329 94.9237C60.8678 93.3246 62.4531 91.5177 63.7438 89.5541C64.6562 88.2051 65.5745 86.94 66.8772 85.8485C69.6313 83.5359 74.3865 81.2247 78.1955 82.4403C81.567 83.5167 82.0222 87.9933 79.5202 90.1499C76.8936 92.4229 72.4946 92.7314 69.1255 93.3786C64.432 94.2849 59.1095 96.0705 54.8973 98.3036C54.5201 98.5006 54.4349 96.9741 54.8042 96.782ZM63.0448 91.8563C63.1792 91.7761 63.3085 91.6911 63.4383 91.6097C64.3594 90.8254 65.3857 90.1444 66.4925 89.583C69.1907 87.6426 71.6423 85.4465 73.8002 83.0369C72.0841 83.4007 70.4577 84.0691 69.0218 85.0007C69.023 85.0169 69.0187 85.0333 69.0094 85.0477C67.9359 86.691 66.6912 88.2461 65.2921 89.692C64.2351 90.7738 63.0126 91.7252 62.0042 92.8451L61.7885 93.0881C61.6729 93.2221 61.5641 93.3589 61.4579 93.499C61.5458 93.4389 61.6339 93.3806 61.7265 93.3236C62.1307 92.8512 62.5667 92.4002 63.032 91.9732C63.0214 91.9668 63.0129 91.9581 63.0073 91.9479C63.0017 91.9377 62.999 91.9264 62.9997 91.9148C63.0003 91.9033 63.0042 91.892 63.011 91.8819C63.0178 91.8719 63.0273 91.8634 63.0385 91.8572L63.0448 91.8563ZM61.0956 94.4973C62.2398 93.744 63.3827 92.9684 64.5504 92.2286C63.6088 92.5265 62.7109 92.9308 61.8799 93.4311C61.5704 93.7781 61.2805 94.1381 61.0115 94.5097L61.0956 94.4973ZM60.7695 94.5736C60.7678 94.5625 60.7665 94.5533 60.7651 94.5441C60.9417 94.2842 61.1347 94.0332 61.3322 93.7834L61.1594 93.9089C61.0763 94.0305 60.9798 94.1484 60.9164 94.2728C60.9074 94.2882 60.8935 94.3011 60.8764 94.3098C60.8594 94.3185 60.84 94.3226 60.8207 94.3216C60.8014 94.3206 60.7831 94.3145 60.7682 94.3041C60.7532 94.2938 60.7422 94.2796 60.7366 94.2635C60.6929 94.302 60.6465 94.3371 60.6048 94.3753C60.5902 94.3874 60.5719 94.3954 60.5523 94.3982C60.5328 94.4011 60.513 94.3987 60.4955 94.3914C60.3729 94.5076 60.2513 94.616 60.1169 94.7395L60.7695 94.5736ZM63.9073 90.4165C63.6455 90.7984 63.3734 91.1685 63.092 91.5344C63.6351 91.0338 64.1921 90.5405 64.7217 90.0212C66.2101 88.5434 67.5302 86.9416 68.6617 85.2404C68.3412 85.4574 68.029 85.687 67.7251 85.9291C66.0785 87.2392 65.0338 88.77 63.901 90.4175L63.9073 90.4165ZM73.99 82.9976C74.003 83.0098 74.0102 83.0259 74.0104 83.0429C74.0105 83.06 74.0035 83.0767 73.9907 83.0899C72.0103 85.3092 69.7812 87.3493 67.3396 89.1772C68.9768 88.4589 70.6907 87.9555 72.1872 86.9825C73.8722 85.8893 75.3989 84.231 76.714 82.8C76.2103 82.7599 75.7013 82.7666 75.1953 82.82C74.7803 82.8623 74.3785 82.9215 73.9837 82.9985L73.99 82.9976ZM76.9214 82.8223C76.9214 82.8223 76.9214 82.8223 76.9233 82.8352C74.8509 85.0926 72.5804 87.2736 69.5479 88.4841C68.3217 88.9646 67.1339 89.5228 65.9942 90.1544C65.3315 90.616 64.6508 91.0577 63.958 91.4898C63.3363 91.9631 62.759 92.4803 62.2322 93.036C63.0974 92.5908 64.0137 92.2324 64.9633 91.9679C66.299 91.1128 67.7071 90.3522 69.1737 89.6935C72.9036 88.0671 76.5541 86.8504 79.8936 84.5724C79.2627 83.4846 78.1682 82.9706 76.9151 82.8232L76.9214 82.8223ZM80.0037 84.7806C80.0005 84.7584 79.9807 84.7406 79.9711 84.7194C77.0416 86.7164 73.9113 88.0074 70.5469 89.314C68.8382 89.9996 67.2002 90.8231 65.6546 91.7736C66.674 91.5009 67.7122 91.2687 68.715 91.0003C72.7698 89.9164 76.726 88.5867 80.4531 86.7514C80.4494 86.0698 80.2938 85.4006 79.9953 84.7818L80.0037 84.7806ZM80.4327 86.9336C77.2443 88.4698 73.9014 89.7255 70.454 90.6819C68.821 91.1507 67.0002 91.483 65.273 91.9845C64.1195 92.6882 62.9932 93.4313 61.8684 94.1703C67.0617 91.5796 73.3798 92.4086 78.6702 90.0544C78.9808 89.8279 79.2632 89.5724 79.5122 89.2929C80.0929 88.6038 80.4154 87.7771 80.4327 86.9336ZM73.0627 92.0215C74.6633 91.6971 76.4516 91.3337 77.9055 90.5386C72.8594 92.4362 67.0088 91.8627 62.1323 94.2257C63.6552 93.8694 65.1883 93.5681 66.6743 93.2681C68.8083 92.8444 70.9435 92.4582 73.0701 92.028L73.0627 92.0215Z" fill="#C3937C"/>
<path d="M66.9101 77.9314C67.5407 77.2086 68.2718 77.4441 69.1591 76.9173C69.1702 76.8786 69.1896 76.8418 69.2162 76.809C72.7204 72.5998 74.3332 66.6247 79.6778 63.7627C83.2996 61.8259 89.1878 62.1732 90.1831 66.391C91.253 70.926 85.4157 73.4193 81.313 74.0613C76.6911 74.7818 70.5085 75.5002 67.3651 79.1092C67.1035 79.4194 66.6473 78.2342 66.9101 77.9314ZM72.5004 75.3954C75.0603 73.8074 77.3539 71.8701 80.1638 70.6508C83.0892 69.3843 86.2942 68.8198 89.4475 68.2836C89.6825 67.3508 89.5519 66.3871 89.0774 65.5524C85.3796 65.8207 81.7998 66.9859 78.7351 68.9186L78.4474 69.11C78.104 69.4925 77.7612 69.8787 77.4205 70.2646C75.6231 72.3121 73.5791 74.184 71.3266 75.8455C71.7134 75.6848 72.1063 75.5364 72.5004 75.3954ZM70.5956 76.1644C73.3728 74.2276 75.6033 71.9639 77.7897 69.5614C75.0769 71.4982 72.8017 73.9684 70.4594 76.2317L70.5898 76.1691L70.5956 76.1644ZM78.447 65.2699C75.6151 67.4487 74.0349 70.4936 72.2859 73.4145C74.0517 72.0244 75.5629 70.4007 76.7613 68.6058C77.7483 67.1212 78.6871 65.6306 79.9264 64.3126C79.4058 64.5943 78.9122 64.9143 78.4512 65.2693L78.447 65.2699ZM80.4181 64.061C78.8582 65.596 77.8041 67.3978 76.6008 69.15C75.3619 70.9526 73.8892 72.3786 72.1234 73.7703C72.1152 73.7773 72.1055 73.7826 72.0949 73.7862C72.0843 73.7897 72.0731 73.7912 72.062 73.7907C71.7169 74.3659 71.3536 74.9343 70.9752 75.488C73.2676 73.2359 75.554 70.8414 78.2833 69.0172L78.5958 68.6732C80.5494 66.4993 82.6621 64.4717 85.5032 63.2459C83.8043 62.9323 82.0122 63.3132 80.4265 64.0598L80.4181 64.061ZM86.8621 63.6588C86.5204 63.5086 86.1616 63.389 85.7908 63.3017C82.9021 64.4816 80.8183 66.4861 78.8699 68.6366L79.1332 68.4695C82.0879 66.7196 85.4786 65.6605 88.9727 65.3962C88.487 64.6415 87.7563 64.0372 86.8705 63.6575L86.8621 63.6588ZM89.3878 68.4622C86.2763 68.9903 83.1139 69.5524 80.2289 70.8016C77.637 71.9246 75.4919 73.6589 73.1752 75.162C73.4684 75.066 73.7579 74.9743 74.0459 74.8867C75.9028 73.425 78.0798 72.3219 80.4288 71.6524C82.7778 70.9828 85.2437 70.7626 87.6586 71.0066C87.9653 70.735 88.2456 70.4413 88.4964 70.1288C88.9096 69.6233 89.2148 69.0577 89.3963 68.4609L89.3878 68.4622ZM84.8557 72.6228C82.7371 72.8114 80.6433 73.23 78.622 73.8693C80.751 73.5576 82.9406 73.3218 84.8641 72.6216L84.8557 72.6228ZM77.6678 74.0155C80.1469 73.1401 82.7491 72.6003 85.3838 72.4149C86.1502 72.0965 86.8584 71.6738 87.4818 71.1628C85.1873 70.9487 82.8496 71.1573 80.6151 71.7756C78.3807 72.394 76.2979 73.4087 74.4973 74.756C74.8002 74.668 75.1014 74.5822 75.3946 74.5013C76.1433 74.3006 76.9031 74.1383 77.6699 74.0152L77.6678 74.0155Z" fill="#C3937C"/>
<path d="M56.294 52.7672C59.8854 49.7485 64.7294 52.7091 66.2567 55.8263C68.6284 60.6637 67.9222 66.4468 67.7267 71.6417C67.726 71.691 67.7085 71.7396 67.6763 71.7811C68.1184 73.206 68.5489 73.3274 68.3682 74.8441C68.3263 75.2162 67.4002 76.5446 67.4421 76.1725C67.7917 73.2213 66.8405 70.3079 64.787 68.0403C62.9672 66.0451 60.3455 64.7337 58.2308 63.012C55.2748 60.5844 52.511 55.9443 56.294 52.7672ZM55.1732 57.3118C55.1955 57.4632 55.2175 57.6128 55.239 57.7586C55.239 57.7586 55.239 57.7586 55.2532 57.7678C57.2842 60.2731 59.6996 62.5121 62.4341 64.4242C61.7479 63.6181 61.0463 62.8236 60.3214 62.0458C58.6936 60.3033 56.9604 58.648 55.1483 57.0552C55.1563 57.1389 55.1646 57.2245 55.1729 57.31L55.1732 57.3118ZM65.0629 67.4037C65.1592 67.5027 65.2515 67.6041 65.3459 67.7053C65.2836 67.2825 65.2189 66.8431 65.1534 66.3982C64.8868 66.2225 64.6263 66.0591 64.3935 65.9085C64.0375 65.6806 63.6835 65.451 63.3314 65.22C63.9214 65.9378 64.4985 66.6651 65.0626 67.4018L65.0629 67.4037ZM66.1852 67.144C66.2957 67.7802 66.3695 68.4222 66.4062 69.0674C66.5005 69.2119 66.5907 69.3571 66.6853 69.5034C66.5127 68.7254 66.3506 67.9458 66.2179 67.1618L66.1852 67.144ZM65.9639 66.9692C65.7655 66.8192 65.5641 66.6772 65.3635 66.5408C65.4447 67.0192 65.5035 67.4915 65.5707 67.9475C65.7988 68.2119 66.0093 68.4883 66.2077 68.7703C66.1524 68.1617 66.0748 67.562 65.9636 66.9673L65.9639 66.9692ZM63.1223 64.8943C63.6222 65.2243 64.3564 65.6273 65.0935 66.094C64.6013 63.5259 63.6041 60.8267 61.3791 59.3344C59.4141 58.0168 56.9707 57.4488 55.2363 55.8578C55.1735 56.1747 55.1429 56.4948 55.145 56.8143C57.9843 59.2955 60.6044 61.9652 62.9839 64.8015C63.0288 64.8289 63.0745 64.8618 63.122 64.8925L63.1223 64.8943ZM55.2821 55.6587C57.3375 57.6192 60.6666 58.0719 62.6195 60.1249C64.1446 61.7241 64.9142 64.0306 65.3096 66.2338C65.5095 66.3647 65.7053 66.498 65.8954 66.636C65.4706 64.565 64.6268 62.5917 63.4038 60.809C61.5345 58.0987 58.8183 56.0148 56.1216 53.9752C56.1084 53.9635 56.1001 53.9482 56.098 53.9315C55.7046 54.4591 55.4275 55.0449 55.2819 55.6568L55.2821 55.6587ZM56.1796 53.829C56.19 53.8278 56.2004 53.8284 56.2104 53.8308C56.2203 53.8332 56.2296 53.8374 56.2375 53.8431C58.947 55.8959 61.6974 57.9936 63.5751 60.7178C64.8505 62.579 65.7153 64.6457 66.1257 66.8133L66.155 66.8373C66.1007 66.4681 66.0463 66.0989 66.0066 65.7275C65.8069 63.7878 65.8115 61.7765 65.0468 59.9408C64.4905 58.9949 63.8664 58.0702 63.2153 57.1664C61.6126 55.4334 59.439 54.0863 57.3746 52.823C57.3746 52.823 57.3727 52.8101 57.3716 52.8027C56.9097 53.0784 56.5055 53.4243 56.1788 53.8234L56.1796 53.829ZM66.0815 64.4414C66.1576 65.3224 66.2722 66.1882 66.4142 67.05C66.7259 67.3056 67.0025 67.5926 67.2387 67.9055C67.2639 67.187 67.2829 66.4693 67.2889 65.7517C66.9918 64.023 66.3995 62.3534 65.5321 60.7992C65.8283 61.9904 66.0115 63.2049 66.0799 64.4304L66.0815 64.4414ZM57.5275 52.7081C59.2425 53.7588 61.0349 54.8678 62.5138 56.2117C61.4736 54.8258 60.3937 53.4911 59.4183 52.2089C59.41 52.1949 59.4075 52.1786 59.4115 52.1628C58.7488 52.2045 58.1016 52.3879 57.5258 52.697L57.5275 52.7081ZM59.5951 52.1546C60.7717 53.6938 62.0917 55.3157 63.3196 57.0134C63.9896 57.7168 64.546 58.5002 64.9736 59.3424C65.0597 59.5183 65.1374 59.6955 65.2088 59.8736C66.1451 61.4062 66.8411 63.0499 67.2784 64.7612C67.2718 64.2491 67.2546 63.7386 67.2269 63.2297C67.2103 63.2314 67.1936 63.228 67.1799 63.2201C67.1662 63.2121 67.1562 63.2001 67.1517 63.1861C65.675 59.4786 64.1557 55.7887 61.7093 52.5014C61.7093 52.5014 61.7069 52.4848 61.7058 52.4774C61.2707 52.3304 60.8152 52.231 60.349 52.1812C60.1027 52.1524 59.8537 52.1392 59.604 52.142L59.5951 52.1546ZM66.1635 57.3527C65.4812 55.3615 64.1383 53.4092 61.9883 52.5716C64.2939 55.7345 65.78 59.2576 67.197 62.8078C67.0986 60.9509 66.7558 59.1184 66.1755 57.3471L66.1635 57.3527ZM67.2123 68.2659C67.0059 67.9476 66.7527 67.6559 66.459 67.3979C66.6138 68.3031 66.796 69.2042 66.9916 70.1091C67.037 70.1986 67.0777 70.285 67.1195 70.3788C67.158 69.6677 67.1926 68.9591 67.2232 68.2529L67.2123 68.2659ZM64.2004 66.6254C64.0886 66.4646 63.9922 66.3354 63.9546 66.2844C63.5898 65.8213 63.215 65.3635 62.8363 64.9082C62.1384 64.4451 61.4536 63.9689 60.7939 63.4587C58.7534 61.8661 56.9167 60.0821 55.3139 58.1361C56.3358 62.0237 61.1396 64.0113 64.2113 66.6125L64.2004 66.6254Z" fill="#C3937C"/>
<path d="M71.0949 60.5286C71.8644 59.7268 72.385 60.1971 73.2807 59.5955C73.2425 59.568 73.214 59.5315 73.198 59.49C73.1821 59.4485 73.1793 59.4036 73.1901 59.3599C73.9427 55.4523 76.3316 51.8865 80.0237 49.5074C82.416 47.963 88.0361 45.3226 90.7161 47.3949C94.2204 50.102 88.6681 54.1508 86.0504 55.3173C80.885 57.6153 75.3155 57.8416 71.2991 62.0169C71.0229 62.3159 70.8145 60.8132 71.0949 60.5286ZM74.1307 59.0629C74.2889 58.7655 74.4561 58.4756 74.6322 58.1931L74.4792 58.3213C74.3105 58.4744 74.141 58.637 73.975 58.8086C73.943 58.9416 73.9152 59.0739 73.8877 59.2081L74.1307 59.0629ZM76.693 57.7971C77.034 57.4281 77.3498 57.0478 77.6572 56.6687C76.7233 56.8658 75.8484 57.2567 75.1064 57.8083L75.0812 57.8271C74.8503 58.1704 74.6338 58.5248 74.4314 58.8866C75.1587 58.4801 75.9142 58.1161 76.693 57.7971ZM77.8738 56.4029C78.1461 56.0629 78.4192 55.7284 78.7062 55.4013C77.9223 55.806 77.1742 56.2644 76.4689 56.772C76.6285 56.711 76.7913 56.6574 76.9567 56.6115C77.2566 56.5315 77.5625 56.4638 77.8696 56.4035L77.8738 56.4029ZM80.0056 50.2306C78.2306 51.4561 76.7571 52.9911 75.6829 54.7339C79.0327 52.0299 83.0135 49.8158 86.6467 47.4605C86.075 47.5768 85.5111 47.7316 85.016 47.8724C83.2104 48.392 81.5132 49.1908 80.0056 50.2306ZM88.5181 47.3112C87.9874 47.277 87.4509 47.3122 86.926 47.4156C86.937 47.4308 86.9406 47.4494 86.936 47.4674C86.9314 47.4854 86.9189 47.5013 86.9014 47.5117C83.0869 49.9785 78.8903 52.2886 75.4261 55.164C74.9761 55.9511 74.6069 56.77 74.3229 57.6106C77.3176 52.1751 83.9678 49.5394 90.3184 48.0212C89.8381 47.6037 89.2015 47.3527 88.5181 47.3112ZM90.4461 48.1589C83.855 49.722 76.8978 52.4764 74.1159 58.3937C74.3952 58.1098 74.6954 57.8425 75.0146 57.5936C76.6536 55.213 79.0171 53.2737 81.823 52.0072C84.6288 50.7406 87.7583 50.2005 90.8375 50.4513C91.1483 49.57 90.9881 48.7449 90.4461 48.1589ZM90.6991 50.8244C90.7337 50.7533 90.7597 50.6816 90.788 50.6114C87.8374 50.3763 84.8398 50.876 82.1329 52.0542C79.426 53.2323 77.1173 55.0422 75.467 57.2799C75.5021 57.2558 75.5423 57.2367 75.5777 57.2145C76.6253 56.3821 77.7782 55.6607 79.0114 55.0659C79.6933 54.2967 80.5459 53.6569 81.5137 53.1884C84.1467 51.965 87.1523 51.8995 90.0158 51.8907C90.2835 51.5555 90.5124 51.1982 90.6991 50.8244ZM89.8946 52.0746C86.7477 52.0855 83.3421 52.1929 80.614 53.8793C80.1178 54.189 79.6657 54.5516 79.2685 54.9583C79.3796 54.9098 79.4854 54.8546 79.5991 54.8096C82.0971 53.7928 84.7947 53.7519 87.4293 53.9843C87.4404 53.9853 87.451 53.9883 87.4606 53.993C87.4702 53.9978 87.4785 54.0042 87.485 54.012C88.4137 53.498 89.2308 52.8376 89.8933 52.0654L89.8946 52.0746ZM87.2604 54.1356C84.4904 53.9042 81.6673 53.9976 79.1055 55.2086L78.9675 55.278C78.6455 55.631 78.3458 56.0033 78.055 56.3781C79.6756 56.0733 81.4071 55.9805 83.0148 55.8361C84.492 55.4068 85.9158 54.8333 87.259 54.1264L87.2604 54.1356ZM82.1732 56.0751C80.8003 56.2094 79.4204 56.3542 78.0668 56.5895C77.991 56.6006 77.9253 56.6216 77.8586 56.6352C77.5837 56.9869 77.3173 57.3374 77.0195 57.6793C77.9435 57.3177 78.8877 57.0011 79.8477 56.7308C80.5721 56.5128 81.3618 56.3002 82.1718 56.0659L82.1732 56.0751Z" fill="#C3937C"/>
<path d="M71.112 49.7168C71.4534 48.8687 72.0449 49.2512 72.5366 48.4601C72.5226 48.4229 72.5168 48.3835 72.5195 48.3438C72.7391 45.9044 73.1874 43.4776 73.8599 41.0886C74.3197 39.512 74.9478 37.9257 76.2774 36.7245C78.1496 35.0341 82.5771 33.5332 84.6597 35.5614C87.0051 37.8565 84.0434 40.6711 81.6968 41.8259C79.0337 43.1367 76.7312 44.5906 74.9225 46.464C74.6313 47.0144 74.2113 47.5073 73.6912 47.9091C72.9431 48.9168 72.3357 49.9978 71.8828 51.1272C71.7438 51.4815 70.9687 50.0717 71.112 49.7168ZM76.079 42.1763C76.1067 42.0289 76.1255 41.879 76.1487 41.7303C75.7504 42.2824 75.3904 42.8545 75.0707 43.4433L75.0484 43.5107C75.3476 43.1931 75.6667 42.8934 75.9895 42.6044C76.0301 42.457 76.0518 42.3123 76.079 42.1763ZM76.6222 37.2414C76.5751 37.2861 76.5303 37.3323 76.4855 37.3785C76.4948 37.3882 76.5006 37.4 76.5025 37.4128C76.5044 37.4255 76.5022 37.4385 76.4961 37.4505C75.2187 39.7643 74.8469 42.3031 74.0491 44.7367C74.2092 44.5246 74.3736 44.2985 74.5481 44.0974C74.6599 43.864 74.7743 43.634 74.8977 43.4065C75.2661 42.2534 75.7656 41.132 76.3883 40.0597C76.4838 39.1177 76.5562 38.1791 76.6222 37.2414ZM76.6145 39.6549C77.5747 38.0997 78.7859 36.6704 80.2085 35.4136C78.9368 35.671 77.7618 36.2427 76.8234 37.0609C76.7615 37.9244 76.6999 38.7898 76.6145 39.6549ZM74.2735 46.1579C74.3546 45.5485 74.4711 44.9421 74.6227 44.341C74.262 45.1258 73.9733 45.9329 73.7596 46.7541C73.9255 46.5524 74.0982 46.3534 74.2735 46.1579ZM75.3859 42.5481C75.6428 42.133 75.9109 41.7352 76.21 41.3441C76.2529 41.0661 76.2934 40.7867 76.3273 40.5063C75.9663 41.1705 75.6518 41.8524 75.3859 42.5481ZM74.94 43.8982C74.7472 44.5659 74.5984 45.2415 74.4945 45.9216C74.6803 45.7245 74.8665 45.5292 75.0537 45.3413C75.2537 44.8894 75.4664 44.4223 75.7113 43.9694C75.8048 43.5973 75.882 43.2314 75.9524 42.8777C75.5926 43.2009 75.2538 43.5417 74.9379 43.8985L74.94 43.8982ZM73.4795 47.1141C73.6618 46.3253 73.9116 45.5477 74.2265 44.7879C74.0833 44.9976 73.9443 45.2067 73.8095 45.4152C73.6916 45.7381 73.565 46.0604 73.4247 46.3772C73.3786 46.7065 73.3323 47.034 73.2926 47.3624L73.4795 47.1141ZM74.0676 42.8781C73.8657 43.7396 73.6986 44.6035 73.5577 45.4711L73.6373 45.3406C74.5584 42.8397 74.8931 40.1951 76.1177 37.7703L76.09 37.8008C74.8827 39.2781 74.4697 41.1723 74.0687 42.8855L74.0676 42.8781ZM80.5363 35.3483C78.9313 36.73 77.5893 38.3301 76.5658 40.0827C76.5292 40.403 76.4899 40.72 76.4472 41.0432C78.2545 38.7676 80.6903 36.9291 83.5106 35.7118C83.5232 35.7099 83.5316 35.7087 83.5421 35.7072C82.9181 35.3753 82.1885 35.22 81.4476 35.2612C81.143 35.2751 80.8389 35.3067 80.5374 35.3557L80.5363 35.3483ZM83.6294 35.7603C83.6368 35.7785 83.6359 35.7986 83.627 35.8168C83.6181 35.8349 83.6018 35.8496 83.5815 35.8579C80.6875 37.105 78.2043 39.0131 76.3996 41.3765C76.3468 41.7181 76.2853 42.0591 76.2193 42.3989C78.5517 40.4484 81.5827 39.1399 84.659 38.1681C84.7838 37.714 84.7526 37.2423 84.5692 36.8143C84.3858 36.3863 84.0588 36.0217 83.6305 35.7677L83.6294 35.7603ZM75.7878 44.6636C76.7758 43.8453 77.8593 43.1227 79.0186 42.509C80.7651 41.5407 83.0092 40.8725 84.1448 39.2586C84.3436 38.9779 84.4973 38.6752 84.6012 38.3596C81.51 39.3468 78.4697 40.6793 76.1619 42.6809C76.1061 42.9437 76.046 43.2072 75.9783 43.4623C76.2658 42.9515 76.6375 42.479 77.0807 42.0608C78.2707 40.9915 80.3761 40.9284 81.9157 40.8751C82.0354 40.8707 82.0628 41.0421 81.9399 41.0394C79.9255 41.108 77.8636 41.2627 76.6456 42.9152C76.2931 43.4049 75.9818 43.9161 75.7146 44.4442C75.6776 44.5723 75.6367 44.7028 75.5965 44.8389C75.6623 44.7896 75.7199 44.7283 75.7889 44.671L75.7878 44.6636Z" fill="#C3937C"/>
<path d="M54.808 38.0406C55.6167 36.7898 57.0975 36.0756 58.6752 35.9752C60.93 35.8317 62.5829 36.7519 64.1139 38.0561C68.0435 41.389 68.5056 46.4813 69.6294 50.9877C69.6324 50.9998 69.6342 51.0121 69.6348 51.0246C70.4045 51.7562 70.8564 51.4539 71.6062 52.1959C71.883 52.4701 71.6637 53.8849 71.3854 53.6147C67.392 49.6594 63.3842 46.0871 57.8239 43.8808C55.2038 42.8428 53.0381 40.7608 54.808 38.0406ZM58.9439 36.5298C61.5099 38.1775 63.0584 40.6804 64.7359 43.0079C65.6945 44.336 67.1687 45.8672 67.8214 47.5119C68.0423 47.8642 68.2394 48.2281 68.4118 48.6019C68.3741 48.4189 68.3381 48.2469 68.2988 48.0678C67.6952 46.5234 66.6333 45.1068 65.8808 43.6314C65.0011 41.9051 64.2493 40.1278 63.4996 38.3502C62.2461 37.2957 60.7011 36.4803 58.9445 36.5335L58.9439 36.5298ZM63.8283 38.6262C64.6072 40.4712 65.3988 42.3142 66.338 44.094C66.8982 45.1545 67.5919 46.1727 68.1232 47.2261C67.4927 44.4049 66.6702 41.5932 64.6319 39.4132C64.382 39.1463 64.1131 38.8823 63.8283 38.6262ZM68.6138 49.5058C68.4469 49.1022 68.2658 48.7045 68.0629 48.3195C68.0716 48.3785 68.0806 48.4395 68.0901 48.5041C68.2837 48.7978 68.3871 49.1331 68.3905 49.4783C68.3943 49.5042 68.3978 49.5282 68.4014 49.5522C68.4038 49.5664 68.4012 49.5811 68.3939 49.5943C68.3866 49.6075 68.375 49.6186 68.3607 49.6261C68.3565 49.6472 68.351 49.6682 68.3441 49.6888C68.388 49.7823 68.4298 49.8762 68.4713 49.9681C68.5656 50.0542 68.662 50.14 68.7566 50.2279C68.7184 49.9826 68.6662 49.7451 68.6138 49.5058ZM68.1087 49.5934L68.1074 49.5841C68.1084 49.5871 68.1089 49.5902 68.1087 49.5934ZM67.9534 49.239C67.7715 48.8509 67.5802 48.4566 67.3799 48.0598C67.1147 47.8117 66.8205 47.5889 66.5019 47.3951C66.6073 47.738 66.6917 48.0864 66.7544 48.4386C67.1562 48.773 67.551 49.1141 67.9389 49.4618C67.9483 49.3944 67.9524 49.3203 67.9542 49.2446L67.9534 49.239ZM66.2567 47.2483C65.5 46.8379 64.6953 46.4977 63.8548 46.2328C64.7814 46.862 65.6674 47.5369 66.5151 48.2438C66.4496 47.9093 66.3636 47.5788 66.2575 47.2538L66.2567 47.2483ZM62.6951 45.4794C62.9099 45.61 63.1132 45.7498 63.3222 45.885C64.3174 46.1732 65.2736 46.5498 66.1764 47.0092C66.0022 46.5222 65.7831 46.0499 65.5213 45.5969C65.3788 45.5198 65.2312 45.451 65.0745 45.3797C63.5118 44.7065 61.7566 44.3313 60.0002 44.1091C60.939 44.5064 61.8401 44.9663 62.6959 45.485L62.6951 45.4794ZM66.4196 47.1432C66.6813 47.2928 66.9299 47.4592 67.1635 47.6409C67.1037 47.5271 67.044 47.4133 66.9808 47.2906C66.5646 46.639 66.1846 46.0876 66.1301 46.024C66.0756 45.9603 66.0584 45.9459 66.0248 45.9075C65.9912 45.869 65.9002 45.8202 65.8364 45.7806C66.0706 46.2216 66.2658 46.679 66.4204 47.1487L66.4196 47.1432ZM66.8452 46.6618C66.9914 46.8666 67.1361 47.0754 67.2705 47.2876C67.4049 47.4997 67.6053 47.7513 67.8086 48.0231C67.7736 47.9019 67.7364 47.781 67.6932 47.6628C67.4361 47.2526 67.1282 46.8698 66.775 46.5212C66.7932 46.5713 66.8197 46.6203 66.846 46.6673L66.8452 46.6618ZM58.0786 43.3341C58.535 43.5139 58.9918 43.6975 59.4495 43.8866C61.4723 44.0941 63.6215 44.4885 65.3616 45.3299C65.3192 45.2607 65.2726 45.1921 65.2283 45.1251C64.4622 44.4717 63.5851 43.927 62.6262 43.5091C60.2966 42.4736 57.7014 41.8091 55.1742 41.2119C55.0583 41.1837 55.1322 41.0294 55.2458 41.0561C58.4639 41.8061 62.2139 42.6212 64.8034 44.5313C62.649 41.7819 58.9444 40.1661 55.0876 39.3404C54.9722 39.3159 55.0457 39.158 55.1595 39.1865C59.3169 40.083 63.2641 41.8724 65.3597 44.9813C65.6092 45.2031 65.8452 45.4365 66.0666 45.6806C63.8 41.9651 60.5699 38.5366 55.9404 37.8643C55.822 37.8478 55.848 37.6893 55.9657 37.7003C60.8279 38.4062 64.1568 42.0822 66.4638 45.9842C66.7818 46.2338 67.0685 46.5127 67.3192 46.8164C66.4187 45.0799 64.8149 43.4131 63.8502 42.0727C62.3775 40.0263 60.9679 37.9706 58.6875 36.5544C58.6875 36.5544 58.6856 36.5414 58.6845 36.534C58.437 36.5535 58.1909 36.5897 57.9483 36.6425C57.0624 36.8261 56.2671 37.2785 55.7037 37.9196C55.1402 38.5606 54.8451 39.3486 54.8707 40.1438C54.95 41.9371 56.4405 42.6889 58.0794 43.3396L58.0786 43.3341Z" fill="#C3937C"/>
<path d="M69.2861 38.4749C69.6502 34.9357 70.4514 31.3869 71.2562 27.8922C71.8217 25.4286 73.7643 21.2986 77.431 23.0218C80.4569 24.4508 79.7762 28.146 77.7155 30.1471C75.5436 32.2682 72.3516 33.5778 70.3909 35.864C70.364 35.8937 70.3313 35.9189 70.2944 35.9385C70.1549 36.8003 70.2968 39.3105 70.207 40.1744C70.1617 40.5526 69.2487 38.8482 69.2861 38.4749ZM71.2947 30.7364C71.1088 31.6333 70.9149 32.5351 70.74 33.4342C70.9089 33.1401 71.1316 32.8714 71.3988 32.6392C71.4286 32.5349 71.4583 32.4306 71.4902 32.3259C71.6387 31.2411 71.8969 30.1666 72.2616 29.1153C72.3632 28.1271 72.3995 27.1334 72.4334 26.1382C72.3198 26.3945 72.2241 26.6561 72.1469 26.9216C71.8008 28.176 71.5676 29.4665 71.2947 30.7364ZM71.2262 34.2396L71.3413 34.1453C71.3446 34.0807 71.3456 34.0145 71.3498 33.9554C71.3358 33.9502 71.3239 33.9415 71.3155 33.9304C71.307 33.9194 71.3023 33.9063 71.3019 33.8927C71.2964 33.9083 71.2901 33.9237 71.2829 33.9389C71.2689 34.0334 71.2518 34.1359 71.2325 34.2387L71.2262 34.2396ZM77.1345 29.7045C75.7608 29.9352 73.9386 30.3017 73.0037 31.3372C72.8355 31.528 72.6856 31.7306 72.5556 31.9426C73.3296 31.6317 74.1703 31.4877 75.0061 31.5232C75.7647 30.9637 76.4762 30.3557 77.1345 29.7045ZM72.1015 32.3471C71.9974 32.4085 71.8966 32.4743 71.7996 32.5444C71.7615 32.665 71.7258 32.7872 71.6832 32.9067C71.6431 33.1012 71.6023 33.2769 71.5674 33.4631C71.5618 33.5564 71.5547 33.6537 71.548 33.7395C71.6947 33.295 71.8699 32.8574 72.0727 32.4287C72.0831 32.397 72.0922 32.3711 72.101 32.3434L72.1015 32.3471ZM72.0117 30.9062C72.0574 30.6618 72.0986 30.4162 72.1374 30.169C72.0338 30.5351 71.9446 30.9028 71.8701 31.2722C71.914 31.1469 71.9616 31.0324 72.0112 30.9025L72.0117 30.9062ZM72.6383 25.7346C72.6155 26.6451 72.5841 27.5551 72.5134 28.4614C73.2524 26.6026 74.3197 24.849 75.6748 23.2673C74.3889 23.3793 73.2899 24.4975 72.6378 25.7309L72.6383 25.7346ZM75.9139 23.2566C74.3707 25.0333 73.1975 27.0316 72.452 29.1532C72.4166 29.5112 72.3707 29.8706 72.3158 30.2276C73.4903 27.7856 75.3185 25.6142 77.6386 23.906C77.1752 23.5142 76.5649 23.2831 75.9134 23.2529L75.9139 23.2566ZM77.8182 24.0455L77.777 24.0138C75.5465 25.6531 73.7729 27.7251 72.6045 30.0569C72.8191 29.6986 73.0636 29.3543 73.336 29.0268C74.7206 27.3818 76.7474 26.1138 78.517 24.8064C78.3211 24.5262 78.0862 24.2694 77.8176 24.0418L77.8182 24.0455ZM78.6177 24.95C76.9949 26.1453 75.1912 27.3088 73.8345 28.7346C73.0079 29.6242 72.3906 30.6472 72.0207 31.7404C71.9769 31.9241 71.9288 32.1085 71.8868 32.2901C71.988 32.2262 72.0926 32.1668 72.2001 32.1119C72.5807 31.1505 73.1062 30.2244 73.8817 29.5066C75.181 28.3042 77.2844 27.6002 78.943 26.8957C79.1002 26.2231 78.9816 25.5321 78.6087 24.9475L78.6177 24.95ZM78.8763 27.0998C77.3265 27.7543 75.4768 28.4304 74.2269 29.4576C73.591 30.0053 73.0838 30.6576 72.7363 31.3747C72.8546 31.2294 72.9861 31.0927 73.1295 30.966C74.1415 30.0889 75.81 29.7582 77.1358 29.5384C77.1476 29.5358 77.1597 29.5355 77.1713 29.5374C77.183 29.5394 77.194 29.5436 77.2035 29.5497C77.213 29.5559 77.2207 29.5638 77.2263 29.573C77.2318 29.5821 77.235 29.5924 77.2356 29.6029C77.9913 28.8239 78.6234 27.965 78.8758 27.0961L78.8763 27.0998ZM74.7872 31.6856C73.9685 31.6747 73.152 31.8455 72.4125 32.1825C72.3585 32.2828 72.303 32.3872 72.2424 32.4867C72.0903 32.9127 71.9576 33.3397 71.8491 33.7555C72.763 33.0739 73.7423 32.4412 74.6254 31.7981L74.7872 31.6856ZM70.7346 34.6666C70.869 34.4117 70.9936 34.1538 71.1085 33.8929C71.1678 33.5805 71.2318 33.2712 71.3195 32.9621C70.8528 33.4588 70.5864 34.075 70.5646 34.7086C70.5644 34.7255 70.5568 34.7419 70.5434 34.7544C70.5301 34.7669 70.5119 34.7745 70.4928 34.7757L70.4677 34.9115C70.5536 34.8234 70.645 34.7439 70.7341 34.6629L70.7346 34.6666Z" fill="#C3937C"/>
<path d="M52.3271 24.8902C55.5061 23.5505 59.1095 25.5886 61.0953 27.5141C64.7892 31.0855 66.1282 31.4654 67.3616 33.1566C67.5852 33.4632 67.5536 35.1748 67.3224 34.8599C66.5888 33.887 65.798 32.9497 64.953 32.0516C64.8925 32.0617 64.8306 32.055 64.7761 32.0323C60.7649 30.3919 55.8192 32.4313 51.99 30.436C49.4107 29.092 49.4031 26.1225 52.3271 24.8902ZM55.7656 29.0329C56.4736 29.0117 57.1806 29.0336 57.8814 29.0985C58.4369 29.1487 58.9748 29.226 59.5317 29.3156C59.1846 29.031 58.8464 28.7338 58.5252 28.4208L58.3936 28.344C56.1163 27.0367 53.4715 25.5685 50.7079 26.9997C50.6447 27.1783 50.6111 27.363 50.6082 27.5482C52.5248 27.3262 53.999 28.318 55.6528 28.9816L55.7656 29.0329ZM62.8049 30.8912L62.6946 30.8282C62.404 30.8006 62.122 30.7686 61.8487 30.7321C61.8814 30.7499 61.9105 30.7721 61.9411 30.7902C62.2306 30.8154 62.5171 30.8487 62.8049 30.8912ZM63.2621 30.3183C62.8869 30.2227 62.5097 30.1274 62.1309 30.0361C62.7139 30.3614 63.3177 30.6666 63.9241 30.9753C63.7067 30.7546 63.4861 30.5356 63.2621 30.3183ZM63.7572 31.0828C63.1664 30.7926 62.5672 30.5037 61.9863 30.1781L63.3479 30.9885C63.4854 31.0173 63.6213 31.05 63.7572 31.0828ZM62.3307 30.6196L60.783 29.7273C60.61 29.6905 60.439 29.6535 60.2636 29.6152C60.6583 29.9321 61.0717 30.2307 61.5022 30.5097C61.7773 30.554 62.0533 30.5888 62.3307 30.6196ZM60.3371 29.4723L59.553 29.022C59.7009 29.1511 59.8471 29.2823 59.999 29.409L60.3371 29.4723ZM59.7893 29.5323C58.739 29.3331 57.6663 29.2208 56.585 29.197C56.4624 29.1962 56.3403 29.1991 56.2185 29.2039C57.772 29.7746 59.3972 30.1928 61.0659 30.4514C60.6235 30.1619 60.198 29.8556 59.7893 29.5323ZM50.8137 26.7691C52.8026 25.8273 54.8609 26.305 56.7213 27.2192C57.1409 27.4271 57.5577 27.6448 57.9729 27.8666C56.8477 26.6913 55.7356 25.4443 53.9788 25.1901C52.6605 25.3296 51.3152 25.8408 50.8137 26.7691ZM54.6065 25.1617C55.5709 25.4346 56.3737 25.9972 57.1038 26.6932C57.6765 27.2407 58.2207 27.7829 58.7752 28.3086C59.5382 28.7318 60.2928 29.1714 61.0417 29.6156C60.6909 29.3891 60.3604 29.1396 60.0527 28.8692C58.8176 27.7798 58.005 26.4209 56.5881 25.4979C56.3957 25.4319 56.1991 25.3666 56.0005 25.3166C55.5499 25.2034 55.08 25.1512 54.6065 25.1617ZM57.2493 25.7551C58.1476 26.4696 58.8266 27.3447 59.6131 28.1757C60.2013 28.7798 60.8813 29.3089 61.6351 29.7489C62.1 29.8558 62.5615 29.9689 63.0212 30.0841L62.7305 29.8025C61.1548 28.2975 59.3999 26.6699 57.2493 25.7551ZM58.8594 30.733C58.0927 30.4551 57.2891 30.257 56.4643 30.1428C55.4143 30.0183 54.3802 30.1612 53.3454 30.3589C54.221 30.5889 55.1305 30.718 56.0519 30.7429C56.9935 30.774 57.9314 30.7509 58.8594 30.733ZM53.016 30.2527C55.3715 29.8001 57.1828 30.0162 59.3329 30.7236C60.0836 30.713 60.8358 30.7134 61.5649 30.7607C61.518 30.7337 61.4728 30.7045 61.4277 30.6753C60.0148 30.482 58.63 30.174 57.2905 29.7551C56.8223 29.6014 56.3656 29.4238 55.9226 29.2229C54.5378 29.3345 53.0511 29.776 51.7174 29.6066C52.1062 29.8825 52.5446 30.1006 53.016 30.2527ZM50.8238 28.5009C50.9651 28.834 51.1828 29.1356 51.4637 29.3875C52.631 29.6229 53.8319 29.182 55.0025 29.0755C55.1808 29.0606 55.3579 29.0515 55.5349 29.0424C53.958 28.3316 52.3023 27.5231 50.6272 27.7208C50.6448 27.9895 50.7075 28.2529 50.8132 28.5025L50.8238 28.5009Z" fill="#C3937C"/>
<path d="M45.9806 17.5073C47.0492 15.2639 50.2742 15.7979 52.1658 16.5C55.0966 17.5904 57.2746 19.3914 59.4278 21.3885C59.4642 21.4227 59.489 21.4653 59.4997 21.5118C60.4316 21.8121 61.3083 22.2488 61.8863 22.9483C62.1298 23.2444 62.2766 24.5185 62.0328 24.2206C60.9269 22.884 57.9901 21.6663 56.2689 21.42C54.1678 21.1184 52.1037 21.2584 49.9972 21.1537C47.9467 21.0503 44.8815 19.8062 45.9806 17.5073ZM49.4359 20.5385L49.8716 20.5781C51.0344 20.4481 52.2017 20.3719 53.369 20.3496C52.7922 20.1837 52.2154 20.0178 51.6447 19.8492L51.1348 19.6847C49.9573 19.7126 48.7806 19.8228 47.6158 20.0145C47.608 20.0157 47.6001 20.0156 47.5925 20.0142C47.5849 20.0127 47.5778 20.0099 47.5715 20.0059C48.1388 20.2974 48.7739 20.4777 49.4354 20.5348L49.4359 20.5385ZM57.0195 20.9567L57.0168 20.9383C56.7671 20.8185 56.5152 20.6991 56.2691 20.575C55.7213 20.5425 55.1717 20.5222 54.6204 20.5142C54.9948 20.6194 55.3705 20.7187 55.7401 20.8208C56.1572 20.8511 56.58 20.8957 57.0085 20.9546L57.0195 20.9567ZM57.3318 20.3336C57.3183 20.3384 57.3039 20.3405 57.2897 20.3398C57.0668 20.2858 56.8454 20.2412 56.6107 20.1946C56.6647 20.2546 56.7171 20.3185 56.771 20.3785L56.9395 20.4574C57.1372 20.4716 57.3333 20.4899 57.5315 20.5079L57.3318 20.3336ZM46.8116 17.4151C48.2214 17.2318 49.6463 17.2309 51.0408 17.4126C49.972 16.8533 48.816 16.5634 47.3245 16.9868C47.1264 17.1043 46.9496 17.2481 46.8006 17.4129L46.8116 17.4151ZM46.6739 17.6032C46.4803 17.9096 46.4171 18.2635 46.496 18.5989C48.872 17.9943 51.4463 18.4148 53.8443 19.2139C53.6474 19.0883 53.4468 18.9669 53.2512 18.8354C52.6264 18.4163 52.0345 17.9867 51.4228 17.628C49.8586 17.3859 48.25 17.3749 46.662 17.5955L46.6739 17.6032ZM55.1108 19.6705L55.4598 19.8077C55.6797 19.8414 55.8842 19.8735 56.0941 19.9123C55.2443 19.0454 54.2536 18.3162 52.9483 17.9464C52.6793 17.871 52.3967 17.8051 52.1065 17.746C53.118 18.3685 54.0973 19.0352 55.0997 19.6684L55.1108 19.6705ZM56.4478 20.4166L56.158 20.2877L56.3912 20.4118L56.4478 20.4166ZM56.1179 20.088L56.3486 20.1955C56.328 20.1721 56.3055 20.1509 56.2828 20.1278C56.2243 20.1101 56.1661 20.0941 56.1065 20.084L56.1179 20.088ZM57.7413 20.692L57.3712 20.6597C57.6233 20.781 57.871 20.9011 58.1102 21.0224L57.7413 20.692ZM57.0388 20.6936L57.133 20.808C57.2419 20.8617 57.349 20.9176 57.46 20.971C57.4734 20.9771 57.4847 20.9859 57.4931 20.9969C57.5014 21.0078 57.5065 21.0205 57.508 21.0338C57.6357 21.0546 57.7618 21.0794 57.888 21.1042C57.6039 20.965 57.317 20.8268 57.0275 20.6896L57.0388 20.6936ZM53.9305 20.514C52.9104 20.519 51.8894 20.5619 50.8665 20.6503C52.2114 20.72 53.5464 20.7082 54.886 20.7712C54.5549 20.6823 54.2353 20.5992 53.9191 20.51L53.9305 20.514ZM54.0349 20.3477C54.658 20.3464 55.2813 20.3615 55.9049 20.3929C55.6021 20.2338 55.3011 20.0725 55.0035 19.9051C53.9446 19.7573 52.8714 19.6808 51.7933 19.6764C52.5288 19.8981 53.2755 20.1238 54.0236 20.3437L54.0349 20.3477ZM54.637 19.6932L54.5454 19.6407C51.9591 18.6863 49.1067 18.0993 46.535 18.761C46.5426 18.8127 46.5762 18.8662 46.5991 18.9194C47.7115 18.6217 48.7542 18.7698 49.8795 19.1001C50.329 19.2338 50.7791 19.3712 51.2292 19.5086C52.3676 19.4899 53.5026 19.5503 54.6235 19.6895L54.637 19.6932ZM53.1907 17.5637C51.9716 17.0058 50.522 16.3857 49.1028 16.4533C48.7165 16.4733 48.3342 16.5487 47.9709 16.6766C49.0845 16.4811 50.2246 16.6668 51.1571 17.1956C51.3444 17.3 51.5278 17.4069 51.7112 17.5138C52.1537 17.588 52.5908 17.6823 53.0208 17.7962C54.4443 18.1806 55.5015 19.0113 56.4092 19.9791C56.6309 20.0257 56.853 20.0741 57.0756 20.1261C55.9226 19.1131 54.6116 18.2496 53.1794 17.5597L53.1907 17.5637ZM46.8663 19.3912C47.0417 19.622 47.2685 19.8181 47.5337 19.9681C47.5233 19.9574 47.5165 19.9444 47.5139 19.9303C47.5113 19.9162 47.513 19.9017 47.5189 19.8881C47.5248 19.8745 47.5346 19.8625 47.5474 19.8531C47.5602 19.8438 47.5754 19.8376 47.5915 19.8351C48.6179 19.6695 49.6535 19.5674 50.6907 19.5295C49.3854 19.1012 48.0651 18.7167 46.6675 19.0772C46.7232 19.1838 46.7858 19.2873 46.855 19.3872L46.8663 19.3912Z" fill="#C3937C"/>
<path d="M64.3896 22.8285C64.2217 21.2651 63.816 19.518 64.0981 17.9317C64.3607 16.4898 65.911 13.5775 68.0512 13.9544C70.3871 14.3761 70.9707 17.5059 70.0344 19.1452C68.7887 21.3242 66.4678 22.9448 65.3597 25.2413C65.3597 25.2413 65.3469 25.2563 65.3417 25.2647C65.4629 26.1898 65.5942 27.1249 65.752 28.0503C65.8064 28.4195 64.7055 27.9932 64.6469 27.6247C64.3452 25.8679 64.5792 24.6112 64.3896 22.8285ZM65.378 23.8334C65.4819 23.5666 65.58 23.2938 65.6722 23.0149C65.6346 22.7601 65.5971 22.5054 65.5596 22.2506C65.4305 22.491 65.3233 22.7396 65.2392 22.9938C65.2734 23.2742 65.3196 23.554 65.378 23.8334ZM65.7192 23.4361L65.7296 23.4195L65.728 23.4084C65.728 23.4084 65.7223 23.4281 65.7192 23.4361ZM65.1804 22.1424C65.1827 22.2891 65.1934 22.4347 65.2041 22.5802C65.2957 22.3655 65.4026 22.1557 65.5242 21.9522C65.4875 21.7029 65.4508 21.4537 65.4344 21.2109C65.3241 21.5163 65.2393 21.8277 65.1804 22.1424ZM65.3938 20.819C65.3733 20.5919 65.3546 20.3627 65.3406 20.1365C65.2666 20.5379 65.2177 20.9418 65.1943 21.3463C65.2538 21.1665 65.3203 20.9907 65.3938 20.819ZM65.6809 21.7027C65.8762 21.4084 66.0922 21.1246 66.3273 20.8531C66.5429 20.099 66.7629 19.346 67.0191 18.6048C66.4195 19.2859 65.9356 20.0388 65.5836 20.8381C65.6108 21.1246 65.6427 21.4141 65.6809 21.7027ZM65.7211 21.976C65.7521 22.1864 65.7831 22.3969 65.8141 22.6073C65.9633 22.161 66.0888 21.7143 66.2182 21.2652C66.0312 21.4937 65.8603 21.7318 65.7064 21.9781L65.7211 21.976ZM65.1819 16.7102C64.5235 18.0765 64.7296 19.4758 64.8621 20.886C64.9018 21.3158 64.9457 21.745 64.9896 22.1743C64.9873 22.1652 64.986 22.1559 64.9855 22.1466C64.961 21.2248 65.071 20.2996 65.3128 19.3937C65.3057 18.0028 65.5259 16.6237 66.2289 15.2828C65.7817 15.6992 65.425 16.1838 65.1777 16.7108L65.1819 16.7102ZM66.5159 15.0576C66.5252 15.0669 66.531 15.0785 66.5329 15.0909C66.5347 15.1034 66.5324 15.1162 66.5263 15.1277C65.9071 16.2595 65.5681 17.4869 65.5325 18.7257C66.04 17.243 66.8913 15.8594 68.0312 14.6646C67.7651 14.6226 67.4893 14.6363 67.2255 14.7046C66.9618 14.7729 66.7173 14.894 66.5117 15.0582L66.5159 15.0576ZM68.5662 14.8536C68.4558 14.7975 68.3389 14.7515 68.2172 14.7164C66.901 16.0797 65.9715 17.6944 65.51 19.4193C65.512 19.768 65.5291 20.1181 65.555 20.4689C65.9711 19.6444 66.5167 18.8724 67.1752 18.1763C67.5597 17.0853 68.1109 16.0407 68.8133 15.0719C68.8246 15.0576 68.8417 15.0477 68.8608 15.0441C68.7688 14.9722 68.6688 14.9086 68.562 14.8543L68.5662 14.8536ZM68.9688 15.1357C68.9705 15.1468 68.9719 15.156 68.9609 15.169C68.3484 16.0048 67.8545 16.9014 67.4906 17.8375C68.1384 17.1933 68.8404 16.5929 69.5902 16.042C69.4607 15.701 69.2472 15.3919 68.9646 15.1363L68.9688 15.1357ZM69.6484 16.2182C68.8108 16.8359 68.0365 17.5182 67.3353 18.2564C67.0568 19.0066 66.8257 19.7725 66.5976 20.5435C67.5248 19.5431 68.6593 18.6367 69.5958 17.7726C69.6077 17.7616 69.6224 17.7533 69.6386 17.7484C69.6548 17.7435 69.6719 17.7423 69.6885 17.7447C69.7051 17.7471 69.7205 17.7532 69.7335 17.7623C69.7464 17.7714 69.7565 17.7834 69.7628 17.797C69.8382 17.2653 69.798 16.7296 69.6442 16.2188L69.6484 16.2182ZM67.8864 20.7573C68.3537 20.2094 68.941 19.6589 69.3313 19.0696C69.5637 18.6898 69.7102 18.2759 69.7622 17.8518L69.7641 17.8647C68.7482 18.8027 67.4703 19.8001 66.5089 20.9188C66.3094 21.6215 66.1078 22.3245 65.8769 23.0187L65.9041 23.2033C66.5058 22.3564 67.2055 21.5479 67.8906 20.7567L67.8864 20.7573ZM65.255 24.1514C65.2131 23.969 65.1754 23.7859 65.144 23.6019C65.1736 23.8032 65.1888 24.0084 65.2122 24.2105L65.255 24.1514Z" fill="#C3937C"/>
<path d="M59.0257 17.5793C57.7883 15.5548 57.3397 13.0634 57.3386 10.7512C57.3401 9.30241 57.4659 6.77158 59.0817 5.82062C61.2734 4.53397 62.8844 6.99378 62.7664 8.61436C62.6519 10.1571 61.7265 11.6363 61.0739 13.0565C60.5834 14.0665 60.2013 15.1118 59.9326 16.1783C59.9424 16.2447 59.9669 16.309 59.9869 16.3721C60.007 16.4351 59.9345 16.4684 59.8726 16.4568C59.7052 17.3189 60.5031 19.1176 60.67 20.0173C60.7392 20.3843 59.2504 19.5568 59.1816 19.1916C59.0865 18.6771 59.0504 18.1536 59.0739 17.6288C59.0556 17.6141 59.0395 17.5975 59.0257 17.5793ZM60.1559 6.28479C59.2427 9.05694 59.049 11.9524 59.5893 14.752C59.7974 13.2714 60.2228 11.8138 60.8547 10.4162C60.9866 9.05204 60.9652 7.68481 60.7907 6.33462C60.5915 6.28297 60.3809 6.2678 60.1717 6.29001L60.1559 6.28479ZM59.4688 15.3639L59.5001 15.2555C59.4832 15.1411 59.4517 15.0288 59.4309 14.9168C59.4495 15.0725 59.4628 15.2214 59.4762 15.3703L59.4688 15.3639ZM59.9542 6.31639C59.7023 6.37472 59.4651 6.47842 59.2576 6.62082C59.2175 7.67163 59.2007 8.71964 59.2071 9.76486C59.3422 8.60379 59.5947 7.45183 59.9616 6.32285L59.9542 6.31639ZM59.8643 14.2267C59.9793 13.937 60.1005 13.6463 60.228 13.3546C60.265 13.27 60.3064 13.1865 60.3452 13.0997C60.4794 12.5518 60.626 12.0002 60.7178 11.4416C60.7382 11.3179 60.7545 11.1948 60.7731 11.0732C60.3602 12.1026 60.0584 13.1607 59.8718 14.2332L59.8643 14.2267ZM59.2085 16.3981C59.1946 16.3941 59.1824 16.3867 59.1733 16.3766C59.1642 16.3666 59.1586 16.3545 59.1572 16.3415C58.842 13.589 58.5275 10.8363 58.2137 8.08355C57.9134 8.96332 57.8903 10.0173 57.9469 10.9709C58.376 12.5858 58.6992 14.2247 58.915 15.8793C58.9999 16.0912 59.0907 16.2985 59.1877 16.5049C59.2039 16.4836 59.2095 16.4489 59.217 16.4119L59.2085 16.3981ZM58.6018 14.9786C58.4541 14.0346 58.2722 13.0964 58.0561 12.1638C58.0724 12.2745 58.0879 12.3798 58.1028 12.4813C58.201 13.3331 58.371 14.1749 58.6114 14.9998L58.6018 14.9786ZM58.3573 7.70215L59.3019 15.9524L59.3246 15.8585C59.0364 12.8362 58.9472 9.795 59.0575 6.75028C58.9369 6.85152 58.8273 6.96241 58.7301 7.08141C58.5807 7.28263 58.4587 7.49819 58.3669 7.72338L58.3573 7.70215ZM61.909 7.25818C61.7415 6.8678 61.4112 6.55287 60.9838 6.37596C61.1299 7.54144 61.164 8.71942 61.0856 9.89741C61.3827 9.28782 61.7239 8.67173 62.103 8.05006C62.0876 7.78476 62.0254 7.52476 61.9185 7.27941L61.909 7.25818ZM61.7005 10.118C61.9329 9.55645 62.0726 8.97102 62.1151 8.38023C61.7147 9.04521 61.3553 9.7278 61.0387 10.4249C61.0243 10.5609 61.01 10.697 60.9935 10.8333C60.9285 11.3257 60.8282 11.812 60.7145 12.2946C61.074 11.5985 61.43 10.8784 61.7101 10.1393L61.7005 10.118Z" fill="#C3937C"/>
<path d="M51.5095 9.50681C50.1051 7.93886 46.6436 0.853406 51.649 0.810166C53.5805 0.791588 53.8665 2.6167 53.6426 3.94167C53.245 6.30506 51.3321 9.22174 52.8236 11.5124C53.0317 11.8307 52.4245 12.071 52.2151 11.7586C51.8123 11.1008 51.6109 10.3565 51.6302 9.59653C51.5818 9.57619 51.5403 9.54536 51.5095 9.50681ZM49.9115 2.8315C50.1587 4.50956 50.4773 6.16201 51.2934 7.67516C51.3219 7.44183 51.3645 7.20955 51.4209 6.97928C51.3974 6.64512 51.3656 6.3122 51.3379 5.97866C51.3379 5.97866 51.321 5.96606 51.3191 5.95313C51.1668 4.72654 50.7346 3.54897 50.0483 2.49072C49.9962 2.60402 49.9507 2.71822 49.9115 2.8315ZM51.4671 7.78915C51.4629 7.84824 51.4608 7.907 51.4587 7.96578L51.4794 8.00424L51.4671 7.78915ZM51.5081 8.50547C51.4959 8.4224 51.4987 8.33901 51.4948 8.2547C51.4812 8.25863 51.467 8.26072 51.4528 8.2609C51.4615 8.31997 51.4552 8.37937 51.461 8.44829L51.5081 8.50547ZM51.2602 8.16477C51.2523 8.11124 51.2658 8.05645 51.2687 8.00321C50.4065 6.52703 50.0541 4.92294 49.79 3.27567C49.7677 3.38605 49.7525 3.49723 49.7445 3.60867C49.6589 5.20182 50.3115 6.81638 51.2605 8.16662L51.2602 8.16477ZM50.1397 2.29428C50.5974 2.97885 50.9509 3.71605 51.1914 4.48759C51.0832 3.49069 50.9543 2.49872 50.7996 1.50679C50.5136 1.7236 50.2878 1.99543 50.1405 2.29983L50.1397 2.29428ZM50.9738 1.40568C51.2315 3.02372 51.4192 4.64828 51.5522 6.28091C51.5465 6.24215 51.5579 6.20275 51.5627 6.16243C51.7361 4.61103 52.423 3.16128 52.3382 1.59322C52.2766 1.54142 52.2093 1.49511 52.1373 1.45495C51.9701 1.35524 51.7736 1.29853 51.5689 1.29082C51.3641 1.28312 51.1587 1.32473 50.9746 1.41122L50.9738 1.40568ZM52.5335 1.78135C52.5473 2.91098 52.1927 3.96098 51.9441 5.07456C51.8869 5.32818 51.8465 5.57933 51.8109 5.83355C52.1615 4.98973 52.6246 4.16518 53.0352 3.36346C53.0298 2.83049 52.8968 2.20503 52.5343 1.78689L52.5335 1.78135ZM52.4978 5.5362C52.7058 4.99153 52.8703 4.43596 52.99 3.87369L52.9961 3.82753C52.494 4.71276 52.0706 5.62907 51.7299 6.56784C51.6913 7.17201 51.6935 7.77632 51.7364 8.37754C51.9094 7.4193 52.1642 6.47131 52.4986 5.54174L52.4978 5.5362Z" fill="#C3937C"/>
<path d="M40.9018 12.865C41.1583 11.5276 42.8348 10.7412 44.2052 10.5752C47.0405 10.2292 49.4765 11.9432 51.8141 12.9889C52.5312 13.036 53.2413 13.1306 53.9383 13.2721C54.3415 13.3541 54.2506 13.9333 53.8474 13.8513C53.155 13.7102 52.4493 13.6168 51.7366 13.5719C51.7153 13.5717 51.6942 13.5698 51.6734 13.5661C50.4355 13.4962 49.187 13.5579 47.9546 13.7499C46.4401 13.973 44.921 14.457 43.3863 14.47C42.1426 14.4891 40.6384 14.2429 40.9018 12.865ZM42.6703 13.9719C44.3499 13.4981 46.1033 13.4812 47.8203 13.1736C47.8329 13.1718 47.8392 13.1708 47.8497 13.1693L47.8602 13.1677C48.0011 13.147 48.14 13.1265 48.2809 13.1058C46.1714 13.0393 44.0828 13.0999 42.0554 13.7663C42.2438 13.8666 42.4519 13.9362 42.6703 13.9719ZM49.4047 13.0025C49.7109 12.98 50.0142 12.9674 50.3205 12.96C50.2223 12.95 50.1265 12.9414 50.0301 12.9292C50.0183 12.9361 50.005 12.9407 49.9912 12.9427C49.9774 12.9447 49.9635 12.9441 49.9502 12.941L49.7668 12.8926C48.6694 12.7373 47.6077 12.475 46.5008 12.3721C44.8042 12.2164 43.0753 12.5504 41.5713 13.3246C41.6378 13.46 41.7406 13.578 41.8713 13.6689C44.3231 12.8344 46.8611 12.8774 49.4153 13.0009L49.4047 13.0025ZM48.8453 12.2248C46.6136 12.0292 44.642 11.4105 42.4327 11.819C42.2971 11.918 42.1692 12.025 42.0501 12.1394C44.686 11.5342 47.263 12.075 49.8113 12.7276L49.9319 12.7438C49.5748 12.5663 49.2179 12.3906 48.8558 12.2233L48.8453 12.2248ZM41.8411 12.355C41.6269 12.5809 41.5154 12.8671 41.5292 13.1554C42.7716 12.5199 44.1676 12.1739 45.5807 12.1512C45.9573 12.1527 46.3325 12.1755 46.704 12.2196C45.106 11.9778 43.5017 11.9274 41.8516 12.3535L41.8411 12.355ZM43.0338 11.4645L42.9516 11.5049C44.7877 11.3344 46.5141 11.7911 48.3707 12.008C47.7562 11.7352 47.1121 11.5143 46.4467 11.3484C45.3535 11.0756 44.1288 10.9901 43.0443 11.4629L43.0338 11.4645ZM46.0637 13.5776C45.0801 13.6612 44.1016 13.8053 43.1357 14.0089C44.0275 14.0379 45.1047 13.8075 46.0743 13.5761L46.0637 13.5776Z" fill="#C3937C"/>
</g>
<defs>
<filter id="filter0_d_9_611" x="0.615921" y="0.810059" width="95.2269" height="131.099" filterUnits="userSpaceOnUse" color-interpolation-filters="sRGB">
<feFlood flood-opacity="0" result="BackgroundImageFix"/>
<feColorMatrix in="SourceAlpha" type="matrix" values="0 0 0 0 0 0 0 0 0 0 0 0 0 0 0 0 0 0 127 0" result="hardAlpha"/>
<feOffset dy="4"/>
<feGaussianBlur stdDeviation="2"/>
<feComposite in2="hardAlpha" operator="out"/>
<feColorMatrix type="matrix" values="0 0 0 0 0 0 0 0 0 0 0 0 0 0 0 0 0 0 0.25 0"/>
<feBlend mode="normal" in2="BackgroundImageFix" result="effect1_dropShadow_9_611"/>
<feBlend mode="normal" in="SourceGraphic" in2="effect1_dropShadow_9_611" result="shape"/>
</filter>
</defs>
</svg>
